<?xml version="1.0" standalone="no"?>
<!DOCTYPE svg PUBLIC "-//W3C//DTD SVG 20010904//EN"
 "http://www.w3.org/TR/2001/REC-SVG-20010904/DTD/svg10.dtd">
<svg version="1.0" xmlns="http://www.w3.org/2000/svg"
 width="1355.000000pt" height="659.000000pt" viewBox="0 0 1355.000000 659.000000"
 preserveAspectRatio="xMidYMid meet">

<g transform="translate(0.000000,659.000000) scale(0.100000,-0.100000)"
fill="#000000" stroke="none">
<path d="M0 3295 l0 -3295 225 0 c143 0 225 4 225 10 0 7 580 10 1720 10 1140
0 1720 -3 1720 -10 0 -7 1617 -10 4830 -10 l4830 0 0 3295 0 3295 -6775 0
-6775 0 0 -3295z m1170 2959 c0 -15 -48 -43 -72 -44 l-28 0 0 -90 c0 -104 18
-151 72 -194 28 -22 30 -26 15 -32 -34 -13 -106 3 -143 31 -54 42 -74 81 -74
149 0 109 73 186 177 186 29 0 53 -3 53 -6z m169 -8 c70 -37 119 -130 105
-201 -18 -95 -133 -176 -215 -150 -20 7 -19 9 16 38 52 42 65 80 65 187 0 76
-3 90 -16 90 -25 0 -84 31 -78 41 8 14 92 10 123 -5z m8509 -3 c-142 -2 -374
-2 -515 0 -142 1 -26 2 257 2 283 0 399 -1 258 -2z m2202 -15 c77 -39 114
-121 91 -199 -16 -53 -65 -106 -109 -119 -25 -8 -207 -10 -552 -8 -573 3 -539
-1 -595 72 -67 87 -24 228 80 264 19 7 212 11 535 11 505 1 506 1 550 -21z
m-10824 -3 c13 -10 15 -17 8 -22 -25 -17 -36 -57 -32 -116 2 -50 0 -62 -12
-62 -12 0 -15 15 -15 78 0 67 -3 81 -20 93 -20 15 -20 15 -1 30 25 18 47 18
72 -1z m604 -67 l0 -62 29 28 c22 21 37 27 62 24 29 -3 34 -8 49 -53 l17 -50
12 28 c6 15 16 39 21 53 14 36 33 25 49 -29 8 -26 18 -47 21 -47 4 0 13 20 20
45 13 45 26 63 37 51 7 -6 -9 -64 -33 -121 -12 -30 -17 -35 -29 -25 -8 7 -20
30 -27 51 -6 22 -14 39 -18 39 -3 0 -13 -21 -21 -47 -9 -28 -21 -48 -29 -48
-8 0 -25 28 -40 67 -14 36 -28 69 -31 72 -3 3 -18 -8 -34 -24 l-29 -30 33 -34
c49 -50 34 -68 -17 -22 l-42 38 0 -31 c0 -21 -5 -31 -15 -31 -12 0 -15 19 -15
110 0 91 3 110 15 110 12 0 15 -14 15 -62z m8360 37 c13 -14 21 -25 18 -25 -2
0 -15 11 -28 25 -13 14 -21 25 -18 25 2 0 15 -11 28 -25z m-8570 -103 c0 -83
-4 -113 -16 -131 -20 -28 -42 -14 -25 17 6 11 11 66 11 121 0 83 3 101 15 101
12 0 15 -19 15 -108z m790 93 c0 -10 -8 -13 -27 -9 -63 11 -69 -34 -9 -62 84
-41 51 -137 -41 -119 -46 8 -37 28 13 29 32 1 40 5 42 23 3 17 -6 27 -37 43
-45 22 -60 55 -41 89 8 17 20 21 55 21 33 0 45 -4 45 -15z m70 -15 c0 -13 7
-20 20 -20 11 0 20 -7 20 -15 0 -8 -9 -15 -20 -15 -17 0 -20 -7 -20 -50 0 -47
2 -50 26 -50 16 0 24 -5 22 -12 -6 -18 -52 -22 -65 -6 -10 12 -18 109 -14 166
1 27 31 30 31 2z m6498 0 c-7 -10 -14 -17 -17 -15 -4 4 18 35 25 35 2 0 -1 -9
-8 -20z m-7296 -82 c3 -63 3 -63 33 -63 20 0 30 5 31 15 1 8 2 36 2 63 3 78
22 54 22 -27 0 -68 -2 -74 -22 -80 -72 -19 -98 5 -98 91 0 48 3 63 15 63 10 0
15 -16 17 -62z m579 52 c16 -9 19 -22 19 -75 l0 -64 -36 -7 c-47 -9 -84 8 -84
40 0 27 13 39 54 53 44 14 45 33 2 33 -34 0 -44 8 -29 23 10 10 52 8 74 -3z
m359 -5 c0 -9 -9 -15 -25 -15 -24 0 -25 -3 -25 -60 0 -47 -3 -60 -15 -60 -12
0 -15 14 -15 69 0 74 2 77 58 80 13 1 22 -5 22 -14z m110 -5 c11 -11 20 -31
20 -45 0 -23 -3 -25 -50 -25 -48 0 -50 -1 -40 -20 8 -14 21 -20 45 -20 41 0
46 -17 8 -26 -54 -14 -104 41 -89 99 14 56 68 75 106 37z m138 8 c7 -7 12 -39
12 -75 l0 -62 -35 -7 c-36 -6 -85 15 -85 37 0 25 22 47 55 53 47 9 48 36 0 36
-19 0 -35 4 -35 9 0 21 69 28 88 9z m230 0 c15 -13 17 -138 2 -138 -5 0 -10
20 -10 44 0 60 -8 76 -36 76 -23 0 -24 -3 -24 -60 0 -46 -3 -60 -15 -60 -10 0
-15 15 -17 58 -3 54 -4 57 -30 60 -28 3 -28 3 -28 -57 0 -48 -3 -61 -15 -61
-12 0 -15 14 -15 69 0 58 3 70 18 74 35 8 157 4 170 -5z m848 -3 c4 -8 14 -15
24 -15 10 0 23 -7 30 -15 11 -14 15 -14 32 2 16 14 24 15 48 6 18 -7 32 -7 36
-2 12 20 24 7 24 -26 0 -24 5 -35 15 -35 10 0 15 10 15 29 0 23 7 33 31 45 27
13 33 13 45 1 16 -16 18 -35 4 -35 -5 0 -10 -9 -10 -20 0 -11 5 -20 10 -20 6
0 10 -7 10 -15 0 -39 -49 3 -51 43 -1 20 -4 16 -8 -12 -5 -33 -10 -40 -33 -43
-15 -2 -32 3 -39 10 -11 12 -17 11 -40 -2 -24 -13 -29 -13 -51 1 -18 12 -28
14 -36 6 -18 -18 -112 -19 -119 -2 -7 19 -39 18 -47 -3 -4 -10 -10 -13 -16 -7
-13 13 23 108 43 112 10 2 19 -10 27 -35 20 -60 30 -62 30 -5 0 50 14 69 26
37z m1154 -3 c0 -15 6 -17 35 -14 38 4 75 -18 75 -45 0 -20 -40 -55 -56 -49
-10 4 -14 -2 -14 -19 0 -16 -6 -25 -15 -25 -11 0 -15 12 -16 43 0 38 -1 40
-10 17 -10 -23 -11 -24 -23 -8 -12 16 -14 16 -30 0 -16 -16 -19 -16 -46 0 -25
14 -29 14 -34 1 -8 -19 -26 -7 -26 18 0 26 -28 24 -32 -3 -2 -12 -8 -23 -14
-25 -12 -4 -24 68 -16 100 6 24 32 22 32 -3 0 -11 7 -20 15 -20 8 0 15 9 15
20 0 11 7 20 15 20 10 0 15 -10 15 -27 0 -25 1 -25 18 -10 23 21 46 22 66 1
15 -14 16 -13 16 9 0 13 3 27 7 30 12 13 23 7 23 -11z m224 -15 c9 -15 6 -22
-17 -41 -21 -17 -24 -25 -15 -34 9 -9 9 -12 0 -12 -7 0 -15 -1 -19 -2 -4 -2
-9 11 -10 28 -2 25 2 33 18 37 12 3 18 10 14 17 -5 8 -11 8 -21 -1 -18 -14
-29 -6 -20 16 8 22 55 16 70 -8z m537 7 c12 -15 11 -16 -9 -10 -13 4 -22 3
-22 -3 0 -5 9 -13 21 -16 25 -8 22 -38 -5 -43 -10 -2 -23 2 -30 8 -8 9 -6 11
11 6 12 -4 24 -2 28 3 3 6 -6 13 -20 17 -15 4 -25 13 -25 23 0 34 29 42 51 15z
m309 6 c0 -5 9 -10 19 -10 10 0 22 -7 25 -16 9 -24 7 -54 -4 -54 -5 0 -10 11
-10 25 0 16 -6 25 -15 25 -9 0 -15 -9 -15 -25 0 -14 -4 -25 -10 -25 -5 0 -10
20 -10 45 0 25 5 45 10 45 6 0 10 -4 10 -10z m-5012 -17 c2 -8 -5 -13 -15 -13
-11 0 -24 -5 -31 -12 -9 -9 -12 -7 -12 8 0 12 3 24 7 28 11 10 46 3 51 -11z
m106 11 c9 -3 16 -12 16 -20 0 -11 -7 -13 -27 -8 -35 8 -37 10 -28 23 7 12 17
14 39 5z m4675 -21 c9 -17 11 -17 23 0 8 10 23 16 35 14 31 -4 35 -11 27 -41
-7 -30 -43 -36 -64 -11 -14 17 -60 20 -60 4 0 -7 9 -9 21 -6 15 4 19 3 12 -4
-16 -16 -47 -7 -51 14 -8 39 38 62 57 30z m198 1 c2 -6 -7 -10 -19 -10 -14 1
-23 -5 -23 -14 0 -10 8 -14 23 -13 12 2 22 -2 22 -8 0 -6 -12 -9 -27 -7 -21 2
-29 10 -33 30 -6 33 -26 25 -33 -12 -3 -19 -5 -16 -6 12 l-1 37 47 -2 c25 -1
48 -7 50 -13z m3404 6 c13 -8 25 -7 39 0 13 7 26 8 37 1 10 -5 26 -5 40 0 18
6 26 4 38 -14 12 -18 15 -19 15 -4 0 9 5 17 10 17 6 0 10 -16 10 -35 0 -37 -8
-43 -28 -23 -9 9 -12 9 -12 0 0 -11 -19 -13 -92 -12 -38 1 -55 0 -103 -2 l-50
-3 -3 38 c-2 21 1 37 7 37 6 0 11 -13 11 -30 0 -16 5 -30 10 -30 6 0 10 11 10
25 0 13 8 29 18 34 21 13 20 13 43 1z m-594 -52 c-2 -13 -4 -5 -4 17 -1 22 1
32 4 23 2 -10 2 -28 0 -40z m1290 0 c-2 -13 -4 -5 -4 17 -1 22 1 32 4 23 2
-10 2 -28 0 -40z m-3974 -5 c-7 -2 -19 -2 -25 0 -7 3 -2 5 12 5 14 0 19 -2 13
-5z m-5072 -63 c16 0 38 9 49 20 24 24 30 25 30 5 0 -8 -15 -24 -32 -36 -39
-24 -81 -19 -115 13 -30 28 -18 44 14 18 14 -11 39 -20 54 -20z m7842 -69 c-2
-3 -18 10 -36 29 l-32 34 36 -30 c20 -16 34 -31 32 -33z m1177 56 c0 -2 -12
-14 -27 -28 l-28 -24 24 28 c23 25 31 32 31 24z m-1400 -67 c0 -7 -507 -10
-1500 -10 -993 0 -1500 3 -1500 10 0 7 507 10 1500 10 993 0 1500 -3 1500 -10z
m1038 -7 c-142 -2 -374 -2 -515 0 -142 1 -26 2 257 2 283 0 399 -1 258 -2z
m-8598 -498 c80 -42 77 -166 -5 -201 -51 -21 -210 -19 -255 4 -76 38 -76 156
0 194 46 24 217 25 260 3z m425 0 c74 -36 81 -151 12 -195 -26 -16 -156 -25
-220 -16 -83 13 -126 87 -92 159 9 20 30 42 48 51 44 21 207 22 252 1z m879 1
c32 -13 66 -65 66 -101 0 -36 -34 -88 -66 -101 -48 -20 -650 -20 -698 0 -32
13 -66 65 -66 101 0 35 34 88 64 101 45 20 653 20 700 0z m-1191 -414 c23 -23
31 -41 34 -79 8 -88 -56 -150 -145 -140 -99 11 -151 133 -89 210 48 61 144 65
200 9z m1249 21 c27 -13 48 -41 48 -62 0 -20 -43 -11 -66 14 -37 40 -94 32
-119 -16 -21 -39 -19 -72 6 -103 24 -31 81 -36 111 -9 31 28 22 43 -27 43 -38
0 -45 3 -45 20 0 18 7 20 75 20 l75 0 0 -27 c0 -95 -120 -155 -201 -100 -41
28 -59 60 -59 110 0 107 100 162 202 110z m-1610 -35 l25 -53 27 53 c21 42 31
52 51 52 14 0 25 -2 25 -5 0 -3 -18 -41 -40 -85 -29 -58 -40 -92 -40 -125 0
-41 -2 -45 -25 -45 -23 0 -25 3 -25 50 0 39 -9 69 -40 130 l-40 80 28 0 c24 0
32 -8 54 -52z m468 -36 c0 -109 21 -142 78 -121 21 8 22 14 22 109 l0 100 31
0 32 0 -6 -98 c-3 -55 -11 -108 -18 -120 -30 -47 -121 -54 -163 -12 -18 18
-21 36 -24 125 l-4 105 26 0 26 0 0 -88z m426 -24 c-4 -100 -7 -115 -26 -130
-12 -10 -35 -18 -50 -18 -56 0 -107 70 -63 87 11 4 22 -1 31 -15 8 -12 23 -22
33 -22 17 0 19 9 19 105 l0 105 31 0 30 0 -5 -112z m94 20 c0 -51 4 -99 9
-107 13 -20 62 -17 78 5 8 12 13 48 13 106 0 87 0 88 25 88 25 0 25 0 25 -99
0 -90 -2 -103 -23 -126 -16 -20 -35 -28 -68 -32 -38 -4 -50 -1 -77 22 l-32 27
0 104 0 104 25 0 c25 0 25 -1 25 -92z m351 69 c22 -15 39 -38 49 -65 13 -37
13 -47 0 -84 -22 -61 -56 -82 -146 -86 l-74 -4 0 131 0 131 69 0 c54 0 75 -5
102 -23z m499 3 c0 -17 -7 -20 -50 -20 -49 0 -50 -1 -50 -29 0 -28 3 -30 43
-33 35 -2 43 -7 45 -25 3 -21 -1 -23 -42 -23 -44 0 -46 -1 -46 -29 0 -28 2
-30 48 -33 40 -3 47 -6 50 -25 3 -22 0 -23 -72 -23 l-76 0 0 130 0 130 75 0
c68 0 75 -2 75 -20z m-1380 -485 c0 -3 -14 -2 -31 2 -29 6 -30 4 -27 -23 2
-21 8 -29 22 -29 25 0 34 25 9 26 -11 0 -13 3 -5 6 7 3 19 2 28 -1 23 -9 -1
-46 -29 -46 -47 0 -63 48 -25 74 15 11 26 12 40 5 10 -5 18 -12 18 -14z m221
9 c12 -15 11 -16 -9 -10 -13 4 -22 3 -22 -3 0 -5 9 -13 21 -16 25 -8 22 -38
-5 -43 -10 -2 -23 2 -30 8 -8 9 -6 11 11 6 12 -4 24 -2 28 4 3 5 2 10 -2 10
-5 0 -18 6 -28 14 -16 12 -17 16 -6 30 17 20 25 20 42 0z m207 -3 c3 -9 -2
-11 -17 -6 -28 9 -27 1 4 -19 25 -17 26 -16 36 14 15 40 33 38 52 -7 l15 -38
1 38 c1 43 16 48 33 12 14 -32 24 -32 32 0 6 22 11 24 49 21 23 -1 47 -4 52
-6 6 -2 23 0 38 5 21 5 33 3 47 -10 18 -16 20 -17 20 -2 0 24 16 21 34 -5 l16
-22 0 23 c0 38 25 18 28 -24 5 -51 -10 -63 -37 -29 -19 24 -21 25 -21 6 0 -11
-4 -24 -10 -27 -5 -3 -10 1 -10 10 0 14 -2 14 -25 -1 -22 -15 -27 -15 -48 -1
-19 12 -26 13 -41 1 -13 -9 -24 -10 -37 -4 -12 7 -20 7 -24 0 -4 -6 -12 -7
-18 -3 -16 10 -57 13 -57 4 0 -10 -31 -8 -48 3 -7 4 -21 5 -30 1 -43 -18 -92
-12 -92 12 0 10 7 13 23 9 l22 -6 -22 11 c-22 12 -30 38 -16 53 11 11 46 2 51
-13z m502 8 c0 -8 5 -7 15 1 22 18 31 4 12 -18 -15 -16 -15 -21 -2 -38 13 -18
15 -17 31 24 9 23 21 42 26 42 5 0 15 -15 23 -32 l13 -33 4 29 c5 44 28 45 28
2 0 -25 4 -36 15 -36 10 0 15 10 15 34 0 29 3 34 25 34 15 0 32 -10 40 -21
l15 -21 0 22 c0 13 6 22 15 22 8 0 15 -5 15 -12 0 -9 3 -9 12 0 19 19 56 14
70 -8 7 -11 16 -20 20 -20 4 0 10 9 13 20 10 33 30 23 47 -24 17 -47 14 -63
-9 -44 -11 9 -19 9 -36 -1 -15 -10 -22 -10 -25 -2 -2 7 -9 8 -21 1 -21 -11
-61 -2 -61 13 0 6 -6 3 -13 -7 -13 -18 -15 -17 -35 9 l-22 28 0 -27 c0 -14 -4
-26 -10 -26 -5 0 -10 7 -10 15 0 13 -3 14 -22 2 -24 -15 -59 -15 -91 -2 -10 4
-24 2 -32 -5 -12 -10 -21 -10 -40 -2 -16 7 -26 8 -30 1 -13 -20 -25 4 -25 47
0 32 4 44 15 44 8 0 15 -5 15 -11z m-1440 -34 c0 -28 4 -35 19 -35 15 0 21 8
24 38 l4 37 1 -42 c2 -43 2 -43 -33 -43 -34 0 -35 1 -35 40 0 22 5 40 10 40 6
0 10 -16 10 -35z m100 -7 c0 -19 20 -6 26 17 10 40 24 29 23 -17 -1 -35 -2
-38 -8 -18 l-7 25 -8 -22 c-4 -13 -11 -23 -16 -23 -5 0 -12 10 -16 23 l-8 22
-7 -25 c-5 -20 -7 -16 -8 20 0 42 1 44 14 26 8 -11 15 -23 15 -28z m100 -23
c9 0 18 13 22 35 l6 35 -1 -40 c-2 -36 -5 -40 -27 -40 -22 0 -25 4 -27 40 l-1
40 6 -35 c4 -22 13 -35 22 -35z m105 55 c4 -6 1 -17 -5 -25 -10 -12 -10 -18 0
-30 9 -11 9 -15 1 -15 -6 0 -14 7 -17 15 -8 20 -21 19 -27 -2 -3 -10 -5 1 -6
25 -1 38 1 42 23 42 14 0 28 -5 31 -10z m48 -58 c14 -3 17 4 17 32 0 20 5 36
11 36 16 0 6 -62 -12 -73 -29 -18 -49 -1 -48 40 l2 38 6 -35 c4 -22 12 -36 24
-38z m184 6 c-2 -13 -4 -3 -4 22 0 25 2 35 4 23 2 -13 2 -33 0 -45z m78 52 c4
-6 1 -17 -5 -25 -10 -12 -10 -18 0 -30 9 -11 9 -15 1 -15 -6 0 -14 7 -17 15
-8 20 -21 19 -27 -2 -3 -10 -5 1 -6 25 -1 38 1 42 23 42 14 0 28 -5 31 -10z
m43 -57 c14 -12 13 -13 -6 -13 -19 0 -22 5 -21 43 2 33 3 36 6 12 2 -16 12
-36 21 -42z m165 30 c-7 -2 -21 -2 -30 0 -10 3 -4 5 12 5 17 0 24 -2 18 -5z
m8115 -128 c98 -23 168 -62 238 -130 249 -244 179 -657 -137 -804 -360 -168
-765 137 -699 526 48 288 321 473 598 408z m-8684 -107 c-3 -29 -7 -59 -9 -66
-8 -22 -25 -2 -25 29 0 19 -5 29 -15 29 -10 0 -15 -10 -15 -29 0 -33 -17 -51
-26 -27 -5 14 -8 14 -30 -1 -22 -14 -26 -14 -49 1 -14 9 -25 22 -25 30 0 21
-48 7 -52 -15 -6 -41 -23 -17 -26 36 -3 53 -2 55 22 55 34 0 56 -10 56 -25 0
-11 6 -11 29 -2 25 9 33 8 50 -8 19 -16 21 -16 21 -2 0 12 9 17 29 17 16 0 31
6 35 15 3 8 12 15 20 15 12 0 14 -10 10 -52z m501 -13 c0 -58 0 -58 -32 -61
-19 -2 -38 2 -45 10 -11 11 -17 11 -37 -2 -21 -15 -26 -14 -52 1 -24 13 -29
14 -29 2 0 -30 -19 -14 -22 18 -2 20 -8 32 -18 32 -10 0 -16 -12 -18 -32 -4
-41 -22 -44 -22 -4 0 17 -5 33 -11 37 -14 8 -29 -14 -29 -44 0 -13 -4 -20 -10
-17 -5 3 -10 19 -10 36 0 19 -5 29 -15 29 -10 0 -15 -10 -15 -29 0 -33 -17
-51 -26 -27 -5 14 -8 14 -29 0 -31 -20 -63 -10 -71 22 -9 34 1 52 31 60 18 4
32 1 45 -11 18 -17 20 -17 20 -1 0 14 12 16 90 15 63 -1 94 -6 101 -16 10 -11
15 -11 31 4 16 14 24 15 48 6 34 -13 100 4 100 25 0 8 6 12 13 10 8 -3 12 -25
12 -63z m73 3 c-4 -75 -23 -77 -24 -3 0 55 2 65 17 65 6 0 9 -26 7 -62z m187
-1 c0 -68 -19 -82 -23 -17 -2 24 -8 48 -14 51 -15 10 1 31 20 27 14 -3 17 -15
17 -61z m76 53 c28 -15 27 -95 -1 -110 -34 -18 -55 2 -58 54 -1 34 3 48 16 55
21 13 20 13 43 1z m112 -16 c6 -11 12 -9 27 6 24 24 30 24 56 5 15 -12 16 -16
5 -24 -9 -6 -10 -11 -2 -15 18 -12 13 -54 -9 -66 -22 -12 -60 2 -60 22 0 7 -9
2 -20 -10 -12 -12 -24 -22 -28 -22 -37 0 -64 86 -36 114 18 18 54 13 67 -10z
m767 -5 c0 -28 1 -29 16 -15 22 22 84 21 84 -1 0 -15 2 -14 20 2 13 12 27 15
45 11 30 -8 40 -26 31 -60 -8 -32 -40 -42 -71 -22 -24 16 -25 15 -25 -3 0 -22
-25 -51 -44 -51 -7 0 -21 7 -32 15 -15 11 -16 17 -6 23 10 7 10 11 -1 21 -12
9 -16 8 -20 -3 -7 -19 -75 -16 -86 3 -6 10 -10 9 -14 -3 -6 -16 -51 -17 -76
-2 -17 11 -14 86 4 86 11 0 15 -11 15 -36 0 -45 24 -42 28 4 2 20 9 32 18 32
8 0 14 -5 14 -12 0 -9 3 -9 12 0 7 7 22 12 35 12 14 0 23 6 23 15 0 8 7 15 15
15 10 0 15 -10 15 -31z m270 5 c0 -22 2 -24 15 -14 8 7 25 10 39 6 20 -5 24
-12 24 -45 1 -45 -21 -61 -57 -42 -13 8 -22 8 -26 1 -14 -23 -25 4 -25 61 0
46 3 59 15 59 10 0 15 -10 15 -26z m256 11 c4 -8 14 -15 24 -15 10 0 23 -7 30
-15 12 -14 15 -14 30 0 19 17 56 20 66 4 4 -8 9 -8 17 0 18 18 26 13 29 -21 4
-42 28 -50 28 -10 0 24 7 34 31 46 28 14 32 14 51 -4 19 -17 19 -20 5 -26 -22
-8 -22 -33 1 -50 16 -12 16 -13 -1 -19 -23 -9 -45 10 -50 43 -3 21 -4 19 -6
-10 -1 -36 -2 -37 -38 -34 -20 1 -39 8 -41 14 -2 7 -13 5 -31 -6 -26 -15 -31
-15 -53 0 -19 13 -27 13 -41 3 -23 -17 -149 -14 -171 4 -39 32 -6 81 55 81 28
0 39 4 39 15 0 8 5 15 10 15 6 0 13 -7 16 -15z m444 0 c0 -8 8 -15 19 -15 10
0 24 -7 31 -15 11 -13 14 -13 27 0 19 19 48 19 67 -1 20 -19 20 -34 0 -62 -18
-26 -46 -29 -65 -6 -11 14 -13 14 -21 -1 -13 -22 -28 -9 -28 26 0 41 -28 39
-32 -2 -2 -26 -8 -32 -29 -35 -14 -1 -30 1 -36 4 -12 8 -24 78 -16 98 6 16 33
19 33 4 0 -5 5 -10 10 -10 6 0 10 7 10 15 0 8 7 15 15 15 8 0 15 -7 15 -15z
m230 0 c0 -8 9 -15 19 -15 11 0 26 -7 34 -15 13 -13 16 -13 27 0 14 17 76 20
86 4 4 -8 9 -8 17 0 6 6 21 11 34 11 14 0 23 6 23 16 0 9 6 14 13 12 8 -3 12
-25 12 -64 0 -58 -1 -59 -29 -61 -16 -1 -37 2 -47 8 -10 5 -20 5 -23 0 -9 -13
-58 -11 -82 4 -15 10 -24 11 -32 3 -6 -6 -27 -12 -46 -14 l-36 -2 0 64 c0 50
3 64 15 64 8 0 15 -7 15 -15z m498 -13 c3 -18 6 -20 22 -10 47 30 94 -37 54
-76 -18 -19 -28 -20 -57 -5 -16 9 -22 9 -25 0 -11 -32 -22 -3 -22 55 0 48 3
65 13 62 6 -3 13 -14 15 -26z m282 18 c0 -5 -6 -10 -12 -10 -9 0 -8 -3 2 -10
12 -7 12 -12 2 -22 -6 -6 -12 -24 -12 -39 0 -32 -17 -48 -26 -25 -5 14 -8 14
-30 -1 -22 -14 -26 -14 -49 1 -48 32 -15 94 44 81 24 -5 32 -2 41 14 11 21 40
29 40 11z m88 -7 c-2 -14 5 -17 36 -18 23 0 41 -5 44 -13 3 -10 7 -10 20 0 18
15 188 20 214 7 11 -6 24 -5 37 3 15 9 25 9 45 0 15 -7 28 -7 31 -2 9 14 118
9 136 -7 14 -11 18 -11 29 2 16 19 44 19 64 -1 23 -23 20 -51 -9 -70 -23 -15
-27 -15 -49 -1 -22 15 -25 15 -30 1 -9 -24 -26 -6 -26 27 0 41 -24 33 -28 -10
-4 -41 -26 -36 -30 7 -5 46 -32 43 -32 -3 0 -38 -13 -46 -29 -17 -6 9 -11 12
-11 5 0 -17 -36 -26 -59 -14 -14 8 -27 8 -46 -1 -22 -10 -28 -9 -43 6 -12 14
-14 20 -5 23 10 4 9 8 -1 19 -23 22 -34 17 -38 -17 -3 -30 -5 -32 -51 -35 -32
-1 -52 3 -63 13 -13 14 -17 14 -34 -2 -12 -11 -26 -14 -39 -10 -24 7 -45 40
-36 55 3 6 2 10 -4 10 -5 0 -11 -15 -13 -32 -2 -18 -7 -32 -13 -31 -17 4 -22
76 -7 101 17 26 44 30 40 5z m1297 -48 c0 -38 -4 -60 -12 -62 -10 -4 -13 13
-13 62 0 49 3 66 13 63 8 -3 12 -25 12 -63z m-3925 38 c10 -17 10 -17 20 0 6
9 18 17 26 17 12 0 11 -7 -6 -40 -11 -21 -20 -49 -20 -60 0 -36 -24 -17 -31
24 -3 20 -11 42 -18 49 -15 15 -14 27 4 27 7 0 19 -8 25 -17z m360 -33 c0 -52
-21 -77 -54 -64 -20 7 -28 32 -14 40 7 4 14 2 16 -4 9 -28 22 -8 22 33 0 33 4
45 15 45 11 0 15 -12 15 -50z m3076 36 c26 -20 10 -32 -21 -16 -31 16 -48 4
-43 -31 2 -16 11 -25 26 -27 12 -2 22 1 22 6 0 5 -10 13 -22 17 -20 7 -17 9
17 12 22 3 48 12 58 21 15 13 23 14 48 5 16 -6 29 -7 29 -2 0 15 67 10 80 -6
11 -14 15 -14 32 2 16 14 24 15 49 6 16 -6 29 -8 29 -3 0 4 34 8 76 8 l75 1
-3 -46 c-3 -41 -6 -47 -28 -49 -33 -3 -70 22 -70 46 0 11 -4 20 -10 20 -5 0
-10 -13 -10 -29 0 -36 -15 -48 -29 -24 -6 10 -11 13 -11 6 0 -20 -40 -26 -65
-9 -23 15 -25 15 -25 0 0 -29 -25 -8 -28 24 -4 42 -32 44 -32 3 0 -34 -17 -50
-26 -26 -6 14 -8 14 -25 -1 -16 -14 -24 -15 -44 -6 -14 6 -25 16 -25 22 0 6
-14 0 -31 -12 -28 -21 -32 -21 -57 -7 -51 28 -35 109 22 109 12 0 31 -6 42
-14z m-3927 -20 c14 -17 11 -81 -4 -81 -5 0 -11 15 -13 33 -2 19 -9 32 -17 32
-8 0 -15 -13 -17 -32 -5 -50 -23 -39 -26 15 l-3 47 34 0 c19 0 40 -6 46 -14z
m624 -1 c13 -13 16 -13 21 0 10 28 26 15 26 -20 0 -46 27 -49 32 -3 5 55 28
46 28 -11 l0 -50 -36 3 c-20 1 -40 9 -44 16 -7 12 -12 11 -28 -3 -23 -21 -40
-22 -64 0 -22 20 -23 46 -2 67 19 20 48 20 67 1z m2025 -22 c5 -47 32 -44 32
3 0 24 4 34 13 32 7 -3 12 -22 12 -48 0 -39 -2 -44 -25 -45 -37 -3 -60 12 -60
41 0 37 -24 24 -28 -15 -4 -41 -26 -36 -30 8 -5 52 3 63 45 59 35 -3 38 -6 41
-35z m-2240 -58 c-6 -14 -15 -25 -20 -25 -12 0 -10 34 4 48 18 18 28 4 16 -23z
m10297 -155 c-46 -47 -50 -49 -67 -33 -18 16 -17 18 14 50 l32 33 -32 33 c-30
31 -31 34 -15 50 17 16 20 15 68 -33 l50 -50 -50 -50z m-11536 127 c8 -10 4
-20 -19 -42 -23 -22 -27 -32 -19 -46 13 -25 29 -24 29 2 0 12 5 19 13 17 8 -3
12 -25 12 -63 0 -53 -2 -58 -23 -60 -12 -1 -27 4 -33 12 -15 17 -34 17 -49 -2
-21 -26 -29 -6 -13 32 12 30 13 41 3 56 -10 17 -6 25 31 63 47 48 51 50 68 31z
m57 -81 c3 -8 16 -17 30 -20 13 -4 24 -11 24 -16 0 -6 11 -3 25 6 17 11 37 15
60 11 29 -5 35 -3 33 11 -2 12 6 17 30 19 l33 3 -3 -63 c-4 -77 -21 -81 -29
-7 l-6 55 -1 -71 c-2 -53 -6 -73 -17 -77 -18 -7 -27 6 -19 26 5 13 -1 15 -29
11 -23 -2 -41 1 -51 11 -19 19 -26 19 -26 -1 0 -8 -4 -12 -10 -9 -5 3 -10 19
-10 36 0 18 -5 29 -14 29 -15 0 -26 -21 -26 -51 0 -11 -4 -17 -10 -14 -13 8
-13 125 0 125 6 0 13 -6 16 -14z m1052 -48 c-2 -35 -7 -63 -13 -63 -5 0 -11
28 -12 63 -1 48 2 62 13 62 12 0 14 -13 12 -62z m302 47 c0 -8 9 -15 19 -15
11 0 23 -5 26 -10 9 -15 26 -1 23 18 -2 10 4 17 12 17 11 0 14 -8 11 -30 -3
-29 -2 -29 16 -12 23 20 54 22 71 5 9 -9 12 -6 12 15 0 17 5 27 15 27 8 0 15
-7 15 -15 0 -8 8 -15 19 -15 27 0 43 -24 39 -62 -4 -42 -22 -43 -26 0 -4 42
-32 44 -32 3 0 -31 -14 -49 -25 -32 -4 7 -14 6 -30 -1 -19 -9 -29 -7 -50 6
-21 14 -25 14 -25 2 0 -10 -9 -14 -27 -12 -23 3 -29 9 -31 35 -4 42 -30 41
-34 -1 -4 -42 -21 -39 -29 4 l-5 33 -10 -34 c-12 -42 -31 -51 -43 -20 l-8 23
-12 -23 c-11 -20 -15 -21 -26 -10 -19 19 -31 89 -16 89 6 0 16 -10 21 -22 6
-17 9 -18 9 -6 1 26 22 33 37 13 12 -16 14 -17 20 -2 3 10 12 17 20 17 8 0 14
7 14 15 0 8 7 15 15 15 8 0 15 -7 15 -15z m360 0 c0 -8 8 -15 18 -15 10 0 23
-5 30 -12 9 -9 15 -9 24 0 15 15 51 15 66 0 7 -7 12 -25 12 -40 0 -36 -36 -56
-68 -39 -14 7 -23 8 -27 1 -11 -18 -25 0 -25 31 0 41 -28 39 -32 -3 -5 -56
-23 -36 -26 30 -2 51 0 62 13 62 8 0 15 -7 15 -15z m560 -10 c0 -23 2 -24 20
-13 28 18 54 -1 57 -39 3 -41 -19 -60 -52 -45 -13 6 -27 7 -29 3 -7 -11 -57
-11 -78 0 -10 6 -19 5 -23 -1 -13 -21 -25 -9 -25 25 0 46 -27 49 -32 3 -3 -35
-28 -52 -28 -19 l0 21 -20 -20 c-23 -23 -33 -24 -61 -9 -15 8 -24 7 -35 -2
-11 -9 -21 -9 -39 -1 -25 12 -34 32 -14 32 8 0 8 5 -1 15 -25 30 30 61 58 33
9 -9 15 -9 24 0 17 17 48 15 70 -5 17 -15 18 -15 18 0 0 20 59 24 78 5 9 -9
15 -9 24 0 7 7 22 12 35 12 14 0 23 6 23 15 0 8 7 15 15 15 9 0 15 -9 15 -25z
m150 10 c0 -8 8 -15 17 -15 9 0 25 -7 35 -17 17 -15 18 -14 18 15 0 22 5 32
15 32 9 0 15 -9 15 -25 0 -23 2 -24 20 -13 28 18 54 -1 57 -39 3 -41 -19 -60
-52 -45 -13 6 -26 8 -29 4 -3 -5 -17 -8 -33 -7 -24 0 -28 4 -31 33 -4 42 -26
37 -30 -7 -5 -49 -27 -32 -30 24 -2 26 -1 54 2 61 7 19 26 18 26 -1z m690 -17
c0 -31 0 -31 21 -13 16 16 25 17 47 9 18 -7 35 -7 49 -1 28 12 55 2 51 -20 -1
-10 1 -23 5 -30 8 -13 -18 -43 -37 -43 -8 0 -19 7 -26 15 -12 14 -15 14 -31
-1 -16 -14 -24 -15 -44 -6 -14 6 -25 17 -26 24 0 7 -4 3 -10 -10 -15 -38 -29
-15 -29 49 0 46 3 59 15 59 10 0 15 -10 15 -32z m490 17 c0 -8 9 -15 20 -15
11 0 25 -9 32 -19 11 -18 12 -18 29 2 14 18 21 20 45 12 34 -12 44 -54 19 -79
-22 -21 -41 -20 -64 3 -19 19 -19 19 -24 -1 -8 -29 -27 -12 -27 23 0 41 -28
39 -32 -3 -3 -32 -9 -35 -57 -29 -5 1 -13 19 -19 41 -7 30 -7 43 4 57 12 16
15 16 24 3 9 -13 12 -13 21 3 12 21 29 22 29 2z m246 0 c-4 -12 3 -15 29 -15
21 0 35 -5 35 -12 0 -9 3 -9 12 0 18 18 45 15 68 -8 l20 -20 0 21 c0 20 4 21
45 16 35 -5 46 -3 55 11 8 12 13 13 16 5 7 -17 34 -17 34 0 0 9 12 14 30 14
l31 0 -3 -61 c-3 -65 -19 -78 -29 -24 l-6 33 -2 -37 c-1 -36 -3 -37 -31 -34
-38 4 -40 7 -50 48 -8 33 -8 33 -9 -10 -1 -49 -21 -49 -21 -1 0 45 -33 35 -41
-11 -6 -32 -7 -33 -14 -12 l-8 23 -19 -21 c-10 -11 -25 -20 -33 -20 -22 0 -57
39 -51 56 3 8 -1 14 -9 14 -8 0 -15 -13 -17 -32 -4 -44 -21 -38 -29 9 -7 40
-11 36 -13 -11 0 -16 -6 -31 -12 -33 -15 -5 -25 86 -13 109 12 22 44 25 35 3z
m752 -10 c0 -14 -4 -28 -9 -31 -5 -2 -6 -18 -3 -33 7 -35 -15 -54 -23 -21 -5
20 -8 21 -17 8 -20 -27 -53 -31 -75 -9 -26 26 -26 43 -1 66 14 12 28 16 50 12
23 -5 32 -2 40 13 15 28 38 25 38 -5z m128 10 c4 -8 14 -15 25 -15 10 0 22 -7
27 -16 8 -14 10 -14 21 0 19 22 57 20 74 -5 18 -25 11 -56 -15 -70 -22 -12
-58 -3 -58 14 0 7 -5 4 -11 -6 -14 -24 -29 -12 -29 24 0 41 -28 39 -32 -2 -2
-26 -8 -32 -29 -35 -36 -3 -45 5 -52 51 -7 47 5 77 25 57 16 -16 28 -15 28 3
0 8 5 15 10 15 6 0 13 -7 16 -15z m-4356 -12 c11 -10 20 -30 20 -45 0 -18 5
-28 15 -28 11 0 15 11 15 36 0 24 4 34 13 32 7 -3 12 -22 12 -48 0 -39 -2 -44
-25 -45 -43 -4 -60 12 -60 55 0 28 -4 40 -14 40 -11 0 -16 -14 -18 -47 -2 -27
-7 -48 -13 -48 -5 0 -11 21 -13 48 -2 33 -7 47 -18 47 -7 0 -14 5 -14 10 0 17
78 11 100 -7z m360 7 c0 -5 7 -10 15 -10 10 0 15 -11 15 -35 0 -24 5 -35 15
-35 10 0 15 11 15 35 0 25 4 35 16 35 12 0 14 -10 12 -46 -3 -43 -5 -47 -30
-50 -37 -4 -58 19 -58 62 0 23 -5 34 -14 34 -11 0 -16 -14 -18 -47 -2 -27 -7
-48 -13 -48 -5 0 -11 21 -13 48 -2 33 -7 47 -18 47 -7 0 -14 5 -14 10 0 6 20
10 45 10 25 0 45 -4 45 -10z m2639 -9 c11 -15 18 -17 42 -7 25 9 32 7 50 -11
38 -38 -6 -98 -56 -75 -16 7 -26 7 -33 0 -17 -17 -39 7 -45 50 -6 55 16 79 42
43z m-2786 -8 c13 -3 17 -15 17 -50 0 -52 -23 -57 -28 -5 -5 50 -32 34 -32
-19 0 -32 -19 -21 -22 13 -4 43 -26 48 -30 6 -5 -50 -23 -40 -26 15 l-3 47 53
-1 c29 -1 61 -3 71 -6z m370 0 c13 -3 17 -15 17 -49 0 -51 -17 -60 -22 -11 -2
20 -8 32 -18 32 -10 0 -16 -12 -18 -32 -4 -42 -20 -43 -24 -1 -4 43 -26 48
-30 6 -5 -50 -23 -40 -26 15 l-3 47 53 -1 c29 -1 61 -3 71 -6z m181 -6 c12 -9
17 -23 14 -47 -4 -44 -22 -46 -26 -2 -2 19 -9 32 -17 32 -8 0 -15 -13 -17 -32
-5 -50 -23 -39 -26 15 -3 46 -2 47 26 47 15 0 36 -6 46 -13z m1588 -4 c17 -15
18 -15 18 0 0 13 9 17 33 17 18 0 38 -5 43 -10 8 -8 19 -7 38 1 22 10 32 10
48 0 14 -9 23 -10 27 -2 4 6 29 10 57 10 80 -2 84 -5 84 -55 0 -51 -17 -60
-22 -11 -2 20 -8 32 -18 32 -10 0 -16 -12 -18 -32 -4 -42 -20 -43 -24 -1 -4
43 -26 48 -30 7 -3 -33 -28 -54 -28 -25 0 15 -2 15 -25 0 -25 -17 -65 -11 -65
9 0 7 -5 4 -11 -6 -14 -24 -29 -12 -29 24 0 19 -5 29 -15 29 -10 0 -15 -10
-15 -29 0 -35 -19 -52 -27 -23 -5 20 -5 20 -24 1 -23 -23 -42 -24 -63 -3 -49
48 15 113 66 67z m1582 1 c15 -14 17 -14 32 0 21 22 50 20 67 -5 31 -44 -14
-94 -58 -65 -21 14 -24 14 -29 0 -9 -24 -26 -6 -26 27 0 41 -28 39 -32 -3 -5
-50 -23 -39 -26 15 -3 46 -3 47 27 47 16 0 37 -7 45 -16z m-4448 -189 c4 -8
14 -15 24 -15 10 0 23 -7 30 -15 11 -14 15 -14 29 -1 9 8 33 14 55 14 21 0 43
6 48 14 7 10 11 10 15 1 6 -15 33 -17 33 -3 0 14 27 12 34 -2 3 -9 8 -8 16 5
17 26 30 20 30 -15 0 -30 1 -31 20 -13 13 12 27 15 46 11 20 -5 30 -2 41 14 9
12 25 20 44 20 26 0 29 -3 29 -31 0 -28 1 -29 16 -15 20 21 43 20 66 -1 17
-15 18 -14 18 16 0 40 23 38 28 -2 3 -24 5 -25 18 -12 9 8 24 15 35 15 10 0
19 7 19 15 0 8 7 15 15 15 11 0 15 -12 15 -50 0 -44 3 -50 21 -50 11 0 19 -5
17 -11 -5 -16 -95 -19 -115 -3 -14 10 -20 9 -29 -5 -12 -15 -13 -15 -19 1 -6
16 -9 16 -31 1 -22 -14 -26 -14 -48 0 -22 15 -25 15 -30 1 -9 -24 -26 -6 -26
27 0 16 -4 29 -10 29 -5 0 -10 -16 -10 -35 0 -38 -13 -46 -29 -17 -6 9 -11 12
-11 5 0 -20 -39 -26 -65 -9 -18 12 -24 12 -28 3 -4 -11 -35 -14 -69 -8 -5 0
-8 15 -8 31 0 20 -5 30 -15 30 -8 0 -15 -9 -15 -20 0 -11 5 -20 10 -20 6 0 10
-7 10 -15 0 -20 -14 -19 -35 1 -9 9 -13 24 -10 35 4 11 2 19 -4 19 -6 0 -11
-15 -11 -33 0 -31 -2 -33 -35 -32 -20 1 -41 7 -47 13 -8 8 -16 7 -32 -3 -11
-7 -32 -12 -46 -11 -23 2 -25 7 -28 64 -2 40 1 62 8 62 6 0 13 -7 16 -15z
m914 0 c0 -8 8 -15 19 -15 10 0 24 -7 31 -15 11 -13 14 -13 27 0 20 21 47 19
67 -4 36 -40 -14 -97 -59 -67 -21 14 -24 14 -29 0 -9 -24 -26 -6 -26 27 0 41
-28 39 -32 -3 -5 -50 -23 -39 -26 15 -2 32 -8 47 -17 47 -9 0 -15 -15 -17 -47
-2 -27 -7 -48 -13 -48 -5 0 -11 21 -13 48 -2 33 -7 47 -18 47 -7 0 -14 4 -14
9 0 6 21 12 48 14 26 2 53 4 60 5 6 1 12 -5 12 -13z m330 -17 c0 -29 1 -30 18
-15 12 11 36 17 65 17 38 0 47 -4 53 -22 l6 -21 19 24 c29 39 34 13 8 -53 -26
-67 -56 -94 -44 -40 4 20 1 41 -9 59 l-15 28 -1 -37 c0 -36 -1 -36 -36 -34
-19 2 -40 8 -46 14 -8 8 -15 7 -24 -6 -12 -16 -13 -16 -19 0 -6 16 -9 16 -30
2 -13 -9 -28 -13 -34 -10 -5 4 -11 -3 -13 -14 -7 -47 -23 -21 -26 43 l-3 67
32 0 c18 0 41 -7 51 -17 17 -15 18 -15 18 9 0 13 3 28 7 31 14 15 23 5 23 -25z
m653 12 c-2 -12 11 -15 69 -14 46 0 73 5 76 12 5 16 20 15 39 -4 12 -11 13
-18 4 -27 -14 -14 -14 -44 1 -49 12 -4 3 -28 -12 -28 -5 0 -16 7 -24 16 -9 8
-16 11 -16 6 0 -14 -30 -23 -52 -16 -13 4 -18 12 -15 24 2 10 1 23 -3 30 -12
19 -30 2 -30 -29 0 -24 -4 -28 -30 -28 -27 0 -30 3 -30 34 0 43 -18 43 -22 1
-4 -45 -21 -38 -30 13 -10 57 4 81 45 77 22 -2 31 -8 30 -18z m1233 4 c-5 -14
-4 -15 9 -4 13 11 18 10 32 -7 14 -17 21 -18 44 -10 23 9 32 8 48 -8 19 -16
21 -16 21 -2 0 11 8 17 25 17 16 0 25 -6 25 -15 0 -8 -4 -15 -10 -15 -5 0 -10
-13 -10 -29 0 -33 -17 -51 -26 -27 -5 14 -8 14 -29 0 -19 -12 -28 -13 -46 -4
-16 9 -23 9 -29 1 -11 -19 -41 0 -47 30 -7 39 -21 37 -25 -3 -4 -42 -21 -39
-29 4 l-6 33 -2 -36 c-1 -33 -4 -37 -28 -37 -42 0 -63 15 -63 46 0 38 17 52
61 52 20 0 42 7 49 15 17 21 44 20 36 -1z m1064 1 c0 -8 8 -15 19 -15 10 0 24
-7 31 -15 12 -14 15 -14 30 0 21 19 44 19 63 0 13 -13 16 -13 27 0 14 17 46
20 55 5 10 -17 24 -2 18 20 -4 14 0 20 11 20 12 0 16 -10 16 -44 0 -37 4 -45
22 -49 29 -8 36 -1 9 8 -12 3 -21 15 -21 25 0 21 25 33 50 25 24 -8 26 -81 3
-89 -21 -8 -53 2 -53 17 0 6 -6 3 -13 -8 -10 -12 -16 -15 -21 -6 -5 8 -13 8
-27 0 -16 -8 -26 -7 -42 4 -19 12 -25 12 -44 0 -20 -14 -26 -14 -47 0 -22 15
-25 15 -30 1 -9 -24 -26 -6 -26 27 0 19 -5 29 -15 29 -10 0 -15 -10 -15 -29 0
-33 -17 -51 -26 -27 -5 14 -8 14 -29 0 -13 -9 -28 -13 -34 -10 -5 4 -11 -3
-13 -14 -6 -41 -23 -24 -26 28 -2 37 -7 52 -18 52 -9 0 -14 -10 -14 -29 0 -36
-15 -48 -29 -24 -6 10 -11 13 -11 6 0 -20 -40 -26 -65 -9 -23 15 -25 15 -25 0
0 -29 -25 -8 -28 24 -4 43 -30 42 -34 0 -2 -18 -7 -33 -13 -33 -5 0 -11 15
-13 33 -2 19 -9 32 -17 32 -8 0 -15 -13 -17 -32 -4 -48 -23 -36 -23 15 l0 42
62 2 c43 1 66 -3 74 -13 10 -12 15 -12 31 3 16 14 24 15 48 6 18 -7 32 -7 36
-2 10 16 116 11 136 -8 17 -15 18 -14 18 15 0 22 5 32 15 32 8 0 15 -7 15 -15z
m420 0 c0 -9 9 -15 23 -15 13 0 28 -5 35 -12 9 -9 12 -9 12 0 0 23 28 12 38
-15 l10 -28 11 28 c13 33 36 37 27 4 -10 -42 -47 -117 -57 -117 -6 0 -7 14 -4
33 4 21 1 39 -9 52 -15 20 -15 20 -16 -2 0 -26 -24 -41 -60 -38 -23 1 -25 6
-28 63 -2 39 1 62 8 62 5 0 10 -7 10 -15z m420 -10 c0 -22 2 -24 20 -13 27 17
37 2 15 -22 -17 -19 -17 -21 0 -40 22 -24 14 -36 -14 -21 -13 8 -22 8 -26 1
-4 -6 -11 -8 -16 -5 -10 7 -13 108 -2 118 13 14 23 6 23 -18z m-1608 -22 l15
-38 16 38 c17 39 47 51 47 17 0 -17 3 -18 26 -8 19 9 30 9 44 0 16 -10 20 -8
25 8 8 24 21 25 42 4 12 -11 13 -18 4 -27 -14 -14 -15 -47 -1 -47 6 0 10 11
10 24 0 31 18 45 58 44 31 -1 32 -3 32 -43 0 -39 -3 -43 -27 -48 -15 -3 -35
-1 -44 3 -9 6 -20 5 -26 -1 -15 -15 -43 1 -44 25 l0 21 -9 -21 c-4 -12 -16
-24 -26 -28 -21 -8 -54 2 -54 17 0 6 -7 2 -15 -9 -14 -19 -15 -18 -21 4 l-7
23 -15 -22 c-14 -20 -16 -21 -27 -5 -11 15 -13 15 -19 1 -13 -34 -26 -12 -26
45 0 71 19 81 42 23z m1418 20 c0 -15 1 -15 18 0 19 17 42 23 42 10 0 -4 -10
-17 -22 -30 l-21 -23 21 -23 c34 -36 22 -55 -13 -20 -16 16 -18 16 -27 0 -5
-10 -13 -15 -19 -12 -10 7 -13 98 -2 108 12 12 23 7 23 -10z m-3341 -25 l8
-23 7 23 c9 26 21 28 35 5 8 -16 10 -16 16 -2 4 11 21 16 65 17 60 2 60 2 60
-27 0 -21 6 -30 22 -34 29 -8 36 -1 9 8 -22 7 -29 39 -10 50 5 4 21 4 33 1 20
-5 24 -13 24 -45 1 -27 -4 -41 -15 -45 -21 -8 -53 2 -53 17 0 8 -4 7 -9 -2
-14 -22 -57 -22 -85 0 -24 19 -25 19 -31 -1 -8 -26 -24 -25 -34 2 l-8 22 -12
-23 c-11 -20 -15 -21 -26 -10 -19 19 -31 89 -16 89 6 0 15 -10 20 -22z m719
-16 c4 -41 26 -38 30 4 3 28 6 30 52 32 41 2 52 -2 64 -20 l16 -22 0 22 c0 18
6 22 34 22 18 0 39 -7 46 -15 11 -13 14 -13 27 0 19 19 48 19 67 -1 14 -13 16
-13 16 -1 0 22 105 20 122 -1 11 -12 11 -16 0 -20 -10 -3 -10 -7 -1 -18 14
-17 -4 -44 -31 -44 -24 0 -50 31 -32 38 10 3 10 7 1 18 -18 22 -29 16 -29 -15
0 -33 -17 -51 -26 -27 -5 14 -8 14 -30 -1 -22 -14 -26 -14 -48 0 -22 15 -25
15 -30 1 -9 -24 -26 -6 -26 27 0 41 -28 39 -32 -3 -3 -28 -7 -32 -33 -33 -27
0 -30 4 -33 33 -4 45 -32 44 -32 -2 l0 -33 -48 1 c-60 2 -72 10 -72 46 0 41
-28 29 -32 -13 -5 -49 -23 -38 -26 16 l-3 48 43 -3 c41 -3 43 -5 46 -36z m552
3 c0 -46 27 -49 32 -3 5 55 28 46 28 -11 l0 -50 -36 3 c-20 1 -40 9 -45 17
-10 16 -12 63 -2 72 15 15 23 5 23 -28z m154 19 c9 -8 16 -24 16 -34 0 -22
-44 -55 -59 -46 -5 4 -11 -3 -13 -14 -7 -47 -23 -21 -26 43 l-3 67 35 0 c19 0
42 -7 50 -16z m2066 -34 c0 -45 -1 -48 -27 -48 -42 0 -63 15 -63 46 0 37 16
52 57 50 33 -1 33 -2 33 -48z m333 32 c10 -9 17 -11 17 -4 0 20 49 26 69 8 16
-15 19 -15 31 -1 18 21 80 20 80 -2 0 -15 1 -15 18 0 10 10 33 17 50 17 32 0
32 -1 32 -50 l0 -49 -36 3 c-22 1 -42 10 -50 21 -13 17 -14 16 -14 -13 0 -40
-30 -60 -66 -43 -35 16 -31 34 6 26 18 -4 30 -3 30 4 0 6 -6 8 -13 5 -7 -2
-21 2 -32 10 -17 12 -22 12 -42 -1 -21 -14 -26 -14 -47 0 -22 15 -25 15 -30 1
-9 -24 -26 -6 -26 27 0 41 -28 39 -32 -3 -2 -18 -7 -33 -13 -33 -5 0 -11 15
-13 33 -4 42 -30 43 -34 0 -3 -30 -5 -32 -48 -34 -24 -1 -52 2 -62 7 -20 11
-24 59 -6 77 18 18 208 13 231 -6z m-5223 -204 c0 -29 1 -30 18 -15 10 10 33
17 50 17 l32 0 0 -60 c0 -50 -3 -61 -21 -71 -16 -8 -28 -8 -45 0 -35 16 -31
34 6 26 20 -4 30 -3 30 5 0 6 -5 8 -10 5 -6 -4 -22 0 -35 9 -21 14 -24 14 -29
0 -13 -34 -27 0 -23 55 6 66 5 61 17 61 6 0 10 -14 10 -32z m140 17 c0 -8 8
-15 19 -15 27 0 43 -24 39 -62 -4 -42 -22 -43 -26 0 -2 19 -9 32 -17 32 -8 0
-15 -13 -17 -32 -5 -56 -23 -36 -26 30 -2 51 0 62 13 62 8 0 15 -7 15 -15z
m316 1 c3 -8 16 -17 30 -20 13 -4 24 -11 24 -17 0 -5 10 -3 22 5 28 20 52 20
68 1 11 -14 15 -14 32 2 16 14 24 15 48 6 26 -10 29 -9 32 10 2 11 9 22 16 25
8 3 12 -12 12 -51 0 -51 1 -55 21 -50 15 4 20 2 17 -7 -6 -18 -58 -22 -65 -5
-4 12 -7 12 -20 0 -18 -19 -34 -19 -58 -1 -16 12 -22 12 -42 -2 -19 -12 -29
-12 -48 -4 -15 7 -26 8 -30 2 -13 -21 -25 -8 -25 25 0 46 -27 49 -32 3 -3 -32
-28 -53 -28 -24 0 15 -2 15 -25 0 -24 -16 -65 -12 -65 7 0 5 -11 2 -25 -7 -27
-17 -60 -12 -69 12 -5 13 0 14 24 9 19 -4 30 -3 30 4 0 6 -6 11 -14 11 -27 0
-47 29 -36 51 13 23 52 25 70 4 17 -21 4 -32 -20 -17 -10 6 -21 8 -24 3 -3 -4
6 -13 19 -19 21 -10 28 -9 45 8 24 24 47 25 72 3 17 -15 18 -14 18 15 0 33 16
43 26 18z m-556 -16 c0 -13 7 -20 20 -20 13 0 20 7 20 20 0 11 5 20 10 20 6 0
10 -27 10 -60 0 -33 -4 -60 -10 -60 -5 0 -10 11 -10 25 0 32 -37 36 -42 5 -6
-41 -23 -19 -26 35 -2 44 0 55 13 55 8 0 15 -9 15 -20z m1170 -472 c106 -54
129 -181 50 -271 -16 -19 -47 -39 -68 -45 -55 -17 -1009 -17 -1064 0 -21 6
-52 26 -68 45 -79 90 -56 217 50 271 44 22 45 22 550 22 505 0 506 0 550 -22z
m1367 11 c64 -24 113 -95 113 -164 0 -69 -49 -140 -113 -164 -19 -7 -202 -11
-537 -11 -335 0 -518 4 -537 11 -87 32 -135 139 -102 226 14 37 57 82 94 99
39 17 1037 20 1082 3z m-1287 -1364 c0 -12 -16 -15 -85 -15 -69 0 -85 3 -85
15 0 12 16 15 85 15 69 0 85 -3 85 -15z m9395 -600 c20 -19 25 -34 25 -75 0
-71 -29 -100 -100 -100 -71 0 -100 29 -100 100 0 71 29 100 100 100 41 0 56
-5 75 -25z m440 -5 c20 -8 24 -14 17 -23 -5 -6 -13 -26 -16 -43 -4 -17 -18
-41 -31 -54 -25 -23 -92 -37 -122 -25 -16 6 -15 8 6 16 23 9 24 10 5 24 -10 8
-15 15 -10 15 5 0 3 7 -4 15 -7 9 -10 18 -7 22 4 3 2 13 -3 23 -13 24 -2 32
24 16 35 -23 66 -29 66 -14 0 17 20 38 36 38 7 0 25 -5 39 -10z m463 -2 c7 -7
12 -37 12 -68 0 -31 -5 -61 -12 -68 -16 -16 -180 -16 -196 0 -7 7 -12 37 -12
68 0 31 5 61 12 68 7 7 44 12 98 12 54 0 91 -5 98 -12z m-9098 -82 c0 -22 -40
-66 -61 -66 -28 0 -23 27 11 61 29 29 50 31 50 5z m-1870 -11 c-16 -20 -5 -45
20 -45 22 0 27 15 8 23 -7 3 -3 6 10 6 23 1 27 -6 13 -27 -12 -20 -65 -11 -69
11 -5 24 5 47 19 47 8 0 8 -4 -1 -15z m98 8 c-10 -2 -18 -9 -18 -14 0 -5 8
-10 18 -10 16 -1 16 -2 0 -6 -10 -2 -18 -8 -18 -13 0 -5 8 -11 18 -13 13 -4
11 -5 -5 -6 -20 -1 -23 4 -23 34 0 30 3 35 23 34 16 -1 18 -2 5 -6z m66 -1
c-7 -4 -14 -18 -16 -32 -3 -23 -4 -22 -9 8 -5 27 -3 32 15 32 13 0 17 -3 10
-8z m53 -44 c-2 -13 -4 -5 -4 17 -1 22 1 32 4 23 2 -10 2 -28 0 -40z m45 17
c-2 -19 -5 -35 -7 -35 -2 0 -5 16 -7 35 -2 21 0 35 7 35 7 0 9 -14 7 -35z m76
24 c-23 -13 -23 -36 1 -48 28 -15 50 13 32 41 -10 16 -10 19 1 16 22 -7 22
-55 0 -67 -21 -11 -62 10 -62 33 0 15 20 36 35 36 5 0 2 -5 -7 -11z m94 -11
l12 -23 7 25 c6 21 7 18 7 -15 1 -39 1 -40 -15 -17 -19 27 -30 28 -36 5 -3
-10 -5 -3 -6 15 -1 37 13 42 31 10z m2128 -8 c-13 -9 -13 -12 3 -24 22 -17 22
-42 1 -50 -14 -5 -15 -4 -4 9 11 13 10 18 -5 29 -20 14 -15 46 7 46 9 0 9 -3
-2 -10z m-447 -20 c-3 -11 0 -27 7 -35 8 -10 9 -15 1 -15 -13 0 -26 45 -16 59
10 17 14 13 8 -9z m866 -17 c-1 -38 -1 -38 -9 -9 -8 27 -6 46 6 46 2 0 4 -17
3 -37z m51 22 c5 3 12 1 15 -5 4 -6 1 -9 -6 -8 -7 2 -16 -8 -20 -22 -6 -21 -7
-18 -7 15 0 22 2 34 5 27 2 -6 9 -10 13 -7z m-806 -18 c7 -11 7 -20 0 -27 -8
-8 -10 -4 -10 12 1 14 -5 23 -14 23 -9 0 -15 -9 -14 -22 0 -12 -3 -20 -8 -17
-12 8 -10 28 4 42 15 15 28 11 42 -11z m105 -21 c-1 -20 -1 -20 -7 2 -4 13
-11 23 -17 23 -5 0 -13 -10 -16 -23 -5 -22 -5 -22 -11 4 -4 20 -1 28 11 31 23
5 41 -12 40 -37z m75 24 c-10 -4 -21 -6 -24 -3 -8 7 24 22 34 16 5 -4 1 -10
-10 -13z m84 -29 c-2 -26 -8 -36 -21 -37 -12 -1 -13 -1 -2 3 20 6 19 23 0 23
-21 0 -30 27 -15 45 20 24 41 6 38 -34z m162 14 c0 -13 -6 -25 -12 -28 -22 -7
-38 4 -38 28 0 13 6 25 13 28 21 7 37 -4 37 -28z m70 5 c0 -11 -5 -22 -12 -26
-7 -4 -8 -3 -4 5 4 7 5 19 2 28 -5 12 -9 13 -21 3 -12 -10 -13 -16 -4 -26 7
-9 8 -14 1 -14 -17 0 -22 29 -6 44 18 19 44 10 44 -14z m55 20 c4 -6 1 -9 -6
-8 -7 2 -16 -8 -20 -22 l-7 -25 -1 27 c-1 14 5 29 12 31 6 3 13 6 14 6 1 1 5
-4 8 -9z m71 -20 c-1 -39 -16 -39 -16 0 0 17 4 30 9 30 4 0 8 -13 7 -30z m74
-5 c0 -13 -6 -25 -12 -28 -22 -7 -38 4 -38 28 0 13 6 25 13 28 21 7 37 -4 37
-28z m200 13 c0 -6 -6 -5 -15 2 -8 7 -16 10 -16 6 -5 -24 -4 -33 5 -46 10 -13
9 -13 -6 -1 -21 16 -23 32 -7 48 13 13 39 6 39 -9z m-868 -13 c-2 -14 -6 -25
-8 -25 -2 0 -4 11 -4 25 0 14 4 25 9 25 4 0 6 -11 3 -25z m105 -12 c-3 -10 -5
-4 -5 12 0 17 2 24 5 18 2 -7 2 -21 0 -30z m-562 -4 c6 0 29 3 52 7 32 5 49 2
69 -10 24 -16 25 -19 9 -36 -9 -9 -18 -33 -21 -52 -5 -27 -1 -40 21 -66 29
-35 28 -51 -8 -96 -23 -28 -27 -29 -115 -31 -104 -2 -114 4 -151 85 -52 115
-4 219 94 205 22 -3 45 -6 50 -6z m-2009 -70 c63 -33 112 -65 108 -70 -3 -5
-19 -16 -35 -25 -29 -14 -32 -14 -48 5 -17 20 -18 19 -76 -39 -81 -82 -88 -80
-81 23 4 45 8 101 9 124 1 24 4 43 6 43 2 0 55 -27 117 -61z m323 18 c16 -20
3 -27 -25 -15 -53 25 -108 -59 -68 -103 21 -24 67 -25 90 -1 17 16 16 17 -11
22 -16 3 -30 11 -33 18 -3 10 7 12 39 10 40 -3 44 -5 41 -28 -3 -30 -45 -70
-73 -70 -33 0 -79 29 -89 56 -16 42 -12 64 19 95 32 32 89 40 110 16z m461
-83 c0 -64 -3 -85 -12 -82 -9 3 -14 32 -16 86 -2 68 0 82 13 82 12 0 15 -15
15 -86z m286 61 c15 -23 15 -27 0 -50 -11 -17 -26 -25 -46 -25 -27 0 -30 -3
-30 -30 0 -20 -5 -30 -15 -30 -12 0 -15 16 -15 80 l0 80 45 0 c36 0 47 -4 61
-25z m54 -55 c0 -47 -4 -80 -10 -80 -6 0 -10 33 -10 80 0 47 4 80 10 80 6 0
10 -33 10 -80z m118 17 c6 -5 12 -29 12 -52 0 -41 -1 -43 -36 -50 -27 -5 -41
-2 -55 11 -10 9 -19 21 -19 25 0 16 33 39 56 39 15 0 23 4 19 11 -4 6 -19 7
-36 4 -35 -8 -40 12 -6 24 23 9 43 5 65 -12z m1169 -51 c12 -39 23 -76 23 -83
0 -22 -20 -14 -32 12 -8 18 -19 25 -40 25 -17 0 -28 -5 -28 -14 0 -17 -26 -40
-33 -29 -2 4 7 43 20 86 21 68 27 78 45 75 16 -2 27 -19 45 -72z m493 65 c0
-6 -15 -11 -32 -13 -41 -4 -44 -28 -6 -46 16 -7 33 -22 38 -33 22 -40 -28 -80
-79 -64 -33 10 -24 25 14 25 27 0 35 4 35 18 0 11 -14 25 -35 35 -37 18 -47
51 -23 75 14 14 88 16 88 3z m-2442 -17 c32 -22 27 -73 -9 -93 -24 -13 -29
-13 -53 2 -34 22 -36 69 -4 91 28 20 38 20 66 0z m130 0 c31 -21 30 -69 -3
-90 -29 -19 -60 -11 -81 21 -17 26 -8 56 24 74 24 14 34 13 60 -5z m136 6 c16
0 18 -7 14 -66 -3 -50 -9 -70 -23 -80 -24 -18 -46 -18 -71 0 -25 19 -9 34 17
18 16 -10 24 -10 35 -1 22 18 17 30 -10 23 -18 -4 -28 1 -45 22 -26 33 -26 35
0 68 16 20 28 26 43 22 11 -3 29 -6 40 -6z m154 -6 c30 -21 28 -31 -13 -44
-43 -14 -46 -34 -5 -28 39 6 49 -8 16 -23 -55 -25 -103 52 -60 95 19 20 34 20
62 0z m429 -21 l16 -38 15 38 c16 40 49 54 36 15 -16 -52 -64 -148 -74 -148
-13 0 -13 16 0 40 7 14 5 31 -10 65 -23 53 -24 65 -9 65 5 0 17 -17 26 -37z
m1678 -19 c-17 -12 -21 -74 -5 -74 6 0 10 -7 10 -15 0 -16 -9 -19 -34 -9 -11
4 -16 19 -16 49 0 24 -5 45 -12 47 -7 3 -5 13 7 31 l17 27 24 -23 c20 -19 21
-24 9 -33z m-419 1 c33 -44 -3 -113 -52 -101 -21 6 -24 3 -24 -19 0 -16 -6
-25 -15 -25 -12 0 -15 16 -15 83 l0 84 46 -2 c33 -1 51 -7 60 -20z m131 16
c19 -2 31 -53 20 -84 -9 -27 -46 -45 -66 -32 -7 4 -11 -4 -11 -19 0 -19 -5
-26 -20 -26 -18 0 -20 7 -20 78 0 43 2 81 4 83 4 4 64 4 93 0z m411 -7 c46
-32 17 -114 -40 -114 -26 0 -58 36 -58 65 0 29 32 65 58 65 10 0 28 -7 40 -16z
m122 1 c0 -7 -9 -15 -19 -18 -15 -4 -20 -15 -23 -48 -2 -24 -7 -44 -13 -44
-10 0 -20 88 -12 109 6 15 67 16 67 1z m102 -2 c10 -9 18 -24 18 -35 0 -14 -8
-18 -40 -18 -22 0 -40 -4 -40 -10 0 -15 37 -31 56 -23 12 4 15 2 12 -8 -7 -21
-45 -23 -74 -5 -30 20 -32 68 -4 96 24 24 47 25 72 3z m-2447 -410 c-2 -16 -4
-43 -4 -60 -1 -22 -6 -33 -15 -33 -20 0 -25 68 -7 98 18 30 30 28 26 -5z m689
6 c-3 -5 -10 -7 -15 -3 -5 3 -7 10 -3 15 3 5 10 7 15 3 5 -3 7 -10 3 -15z
m1690 0 c-3 -5 -10 -7 -15 -3 -5 3 -7 10 -3 15 3 5 10 7 15 3 5 -3 7 -10 3
-15z m111 12 c3 -5 1 -12 -5 -16 -5 -3 -10 1 -10 9 0 18 6 21 15 7z m5885 -7
c0 -8 -5 -12 -10 -9 -6 4 -8 11 -5 16 9 14 15 11 15 -7z m970 0 c0 -8 -5 -12
-10 -9 -6 4 -8 11 -5 16 9 14 15 11 15 -7z m-10584 -44 c19 0 24 5 24 25 0 14
5 25 10 25 6 0 10 -25 10 -55 0 -30 -4 -55 -10 -55 -5 0 -10 11 -10 25 0 20
-5 25 -25 25 -20 0 -25 -5 -25 -25 0 -14 -4 -25 -10 -25 -12 0 -14 93 -2 104
4 4 8 -4 10 -18 3 -20 9 -26 28 -26z m674 40 c0 -5 -7 -10 -15 -10 -11 0 -15
-12 -15 -45 0 -25 -4 -45 -10 -45 -5 0 -10 20 -10 45 0 25 -4 45 -10 45 -5 0
-10 5 -10 10 0 6 16 10 35 10 19 0 35 -4 35 -10z m642 -45 c2 -27 8 -40 18
-40 10 0 16 13 18 40 5 64 24 69 20 5 l-3 -55 -35 0 -35 0 -3 55 c-4 64 15 59
20 -5z m514 41 c15 -12 17 -18 8 -33 -6 -10 -21 -19 -33 -21 -13 -2 -21 -11
-21 -23 0 -10 -4 -19 -10 -19 -11 0 -14 93 -3 103 11 11 38 8 59 -7z m719 -23
l25 -38 0 32 c0 18 5 35 10 38 6 4 10 -15 10 -49 0 -31 -4 -56 -9 -56 -5 0
-20 17 -33 38 l-23 37 -3 -37 c-5 -55 -22 -46 -22 10 0 42 5 62 16 62 2 0 15
-17 29 -37z m630 -18 c9 -26 14 -49 10 -53 -4 -4 -10 -1 -12 6 -5 14 -53 17
-53 2 0 -5 -5 -10 -11 -10 -11 0 -7 19 17 77 18 41 26 37 49 -22z m115 0 l0
-55 -33 0 c-39 0 -57 15 -57 47 0 25 30 46 54 37 11 -4 16 -1 16 10 0 9 5 16
10 16 6 0 10 -25 10 -55z m5368 39 c28 -20 30 -69 3 -84 -11 -5 -31 -10 -45
-10 -25 0 -26 3 -26 55 0 51 2 55 23 55 12 0 33 -7 45 -16z m812 0 c0 -11 5
-14 16 -10 24 9 54 -12 54 -37 0 -32 -18 -47 -57 -47 l-33 0 0 55 c0 30 5 55
10 55 6 0 10 -7 10 -16z m100 -39 c0 -30 -4 -55 -10 -55 -5 0 -10 25 -10 55 0
30 5 55 10 55 6 0 10 -25 10 -55z m80 29 c0 -23 2 -25 15 -14 9 7 18 11 20 8
3 -3 -1 -11 -9 -17 -14 -11 -13 -16 1 -37 16 -25 6 -33 -15 -12 -9 9 -12 9
-12 0 0 -7 -4 -12 -10 -12 -5 0 -10 25 -10 55 0 30 5 55 10 55 6 0 10 -12 10
-26z m178 10 c44 -30 18 -94 -38 -94 -31 0 -50 23 -50 59 0 19 34 51 55 51 6
0 21 -7 33 -16z m142 -3 c8 -16 5 -26 -15 -50 l-26 -30 28 -4 c20 -3 16 -4
-14 -6 -42 -1 -58 11 -29 22 8 3 23 18 32 32 13 20 14 29 5 38 -10 9 -15 8
-27 -7 -16 -22 -28 -17 -18 8 9 22 51 20 64 -3z m92 -6 c18 -41 0 -80 -37 -80
-28 0 -30 3 -33 39 -4 52 3 66 33 66 18 0 29 -8 37 -25z m88 6 c8 -16 5 -26
-15 -50 l-26 -30 28 -4 c20 -3 16 -4 -14 -6 -42 -1 -58 11 -29 22 8 3 23 18
32 32 13 20 14 29 5 38 -10 9 -15 8 -27 -7 -16 -22 -28 -17 -18 8 9 22 51 20
64 -3z m50 -36 c0 -30 -4 -55 -10 -55 -5 0 -10 19 -10 43 0 24 -5 48 -12 55
-9 9 -7 12 10 12 20 0 22 -5 22 -55z m161 -3 c19 -56 19 -58 -11 -40 -16 10
-24 10 -40 0 -11 -6 -22 -12 -24 -12 -2 0 5 25 17 55 11 31 25 54 30 52 6 -2
18 -27 28 -55z m49 3 c0 -30 -4 -55 -10 -55 -5 0 -10 25 -10 55 0 30 5 55 10
55 6 0 10 -25 10 -55z m40 0 c0 -30 -4 -55 -10 -55 -5 0 -10 25 -10 55 0 30 5
55 10 55 6 0 10 -25 10 -55z m270 39 c0 -8 4 -12 10 -9 21 13 50 -15 50 -50 0
-44 -18 -46 -22 -2 -2 20 -8 32 -18 32 -10 0 -16 -12 -18 -32 -5 -54 -22 -37
-22 22 0 30 5 55 10 55 6 0 10 -7 10 -16z m890 -38 l0 -54 -42 2 c-41 1 -43 3
-46 33 -3 35 23 58 52 47 11 -4 16 -1 16 10 0 9 5 16 10 16 6 0 10 -24 10 -54z
m-8044 29 c9 -8 11 -15 5 -15 -15 0 -14 -57 2 -64 6 -3 3 -5 -8 -3 -15 2 -21
11 -23 35 -5 45 -36 41 -40 -6 -5 -46 -22 -40 -22 8 0 38 2 40 30 40 17 0 30
5 30 10 0 14 9 12 26 -5z m7260 0 c9 -8 11 -15 5 -15 -15 0 -14 -57 2 -63 6
-3 2 -6 -9 -6 -18 -1 -23 6 -26 38 -5 61 2 73 28 46z m-10705 -5 c24 -13 26
-65 3 -74 -29 -11 -53 -6 -64 14 -15 28 3 61 38 69 2 1 12 -4 23 -9z m94 0 c4
-7 13 -6 26 1 15 7 24 7 35 -2 16 -13 19 -79 4 -79 -5 0 -10 16 -10 36 0 28
-3 35 -17 32 -12 -2 -19 -14 -21 -36 -4 -44 -22 -41 -22 4 0 28 -3 35 -17 32
-12 -2 -19 -14 -21 -36 -5 -45 -22 -40 -22 7 0 33 4 40 23 44 12 2 25 5 29 6
4 0 10 -4 13 -9z m159 -6 c31 -31 13 -74 -31 -74 -55 0 -47 83 9 89 4 1 14 -6
22 -15z m370 3 c12 -9 17 -23 14 -42 -3 -27 -7 -30 -38 -30 -31 0 -35 3 -38
30 -3 26 17 55 38 55 3 0 14 -6 24 -13z m68 -9 c-7 -7 -12 -25 -12 -40 0 -15
-4 -28 -10 -28 -5 0 -10 18 -10 39 0 30 4 41 18 43 23 6 28 0 14 -14z m108 12
c25 15 50 -8 50 -45 0 -44 -18 -46 -22 -2 -2 20 -8 32 -18 32 -10 0 -16 -12
-18 -32 -4 -45 -22 -42 -22 3 0 28 -3 35 -17 32 -12 -2 -19 -14 -21 -36 -5
-45 -22 -40 -22 7 0 33 4 40 23 43 12 2 29 1 38 -3 8 -4 21 -4 29 1z m114 4
c23 -9 20 -26 -4 -19 -11 3 -20 2 -20 -4 0 -5 9 -13 21 -16 29 -10 20 -39 -14
-43 -20 -3 -27 1 -27 14 0 14 3 15 12 6 14 -14 28 -16 28 -3 0 5 -9 13 -20 16
-22 7 -27 40 -7 48 6 3 13 6 14 6 1 1 8 -2 17 -5z m134 -10 c37 -26 23 -74
-23 -74 -42 0 -59 44 -29 74 19 20 24 20 52 0z m278 0 c18 -15 18 -15 -8 -9
-34 7 -37 -6 -5 -20 33 -15 28 -40 -7 -40 -17 0 -31 6 -34 15 -5 13 -3 13 12
1 13 -11 20 -11 28 -3 7 7 8 12 2 12 -6 0 -19 6 -29 14 -16 12 -17 16 -6 30
17 20 22 20 47 0z m88 0 c31 -31 13 -74 -31 -74 -55 0 -47 83 9 89 4 1 14 -6
22 -15z m386 -35 c0 -22 -4 -39 -10 -39 -5 0 -10 16 -10 36 0 45 -24 42 -28
-4 -5 -46 -22 -40 -22 7 0 30 4 40 18 43 38 9 52 -3 52 -43z m190 0 c0 -38 -1
-39 -35 -39 -28 0 -38 5 -47 26 -11 23 -10 29 9 44 14 11 32 16 48 13 22 -5
25 -10 25 -44z m74 45 c9 -3 16 -13 16 -21 0 -13 -3 -13 -15 -3 -18 15 -45 6
-45 -13 0 -8 7 -20 15 -27 12 -10 18 -10 32 1 14 12 16 12 11 -1 -2 -8 -17
-16 -31 -18 -21 -3 -30 3 -39 24 -11 23 -10 28 11 45 26 22 24 21 45 13z m490
-10 c31 -31 13 -74 -31 -74 -55 0 -47 83 9 89 4 1 14 -6 22 -15z m216 -10 c0
-2 -11 -2 -25 2 -31 8 -33 -8 -2 -21 12 -6 22 -17 22 -25 0 -18 -43 -26 -58
-11 -16 16 0 26 18 11 9 -7 19 -9 23 -5 4 4 2 10 -4 12 -6 2 -20 10 -30 18
-19 15 -19 15 0 30 14 10 24 11 37 4 11 -5 19 -12 19 -15z m564 10 c31 -31 13
-74 -31 -74 -55 0 -47 83 9 89 4 1 14 -6 22 -15z m220 10 c23 -9 20 -26 -4
-19 -11 3 -20 2 -20 -4 0 -5 9 -13 20 -16 11 -3 20 -15 20 -26 0 -14 -7 -19
-30 -19 -22 0 -30 5 -30 17 0 13 3 14 12 5 14 -14 28 -16 28 -3 0 5 -9 13 -20
16 -22 7 -27 40 -7 48 6 3 13 6 14 6 1 1 8 -2 17 -5z m134 -6 c14 -14 16 -78
2 -78 -5 0 -10 16 -10 36 0 28 -3 35 -17 32 -12 -2 -19 -14 -21 -36 -5 -45
-22 -40 -22 7 0 33 4 40 23 44 12 2 24 5 28 6 3 0 10 -4 17 -11z m108 2 c17 0
20 -71 4 -101 -13 -23 -52 -25 -70 -4 -14 17 -3 20 20 5 9 -5 19 -5 27 2 21
17 15 23 -19 23 -29 0 -33 4 -36 30 -4 31 22 60 46 50 8 -3 20 -5 28 -5z
m4905 0 c5 0 9 -18 9 -40 0 -39 -1 -40 -35 -40 -24 0 -37 6 -45 20 -18 33 14
75 48 64 8 -2 18 -4 23 -4z m160 -11 c12 -19 11 -69 0 -69 -6 0 -11 15 -13 32
-2 22 -9 34 -20 36 -15 3 -18 -4 -18 -32 0 -45 -18 -48 -22 -3 -2 20 -8 32
-18 32 -10 0 -16 -12 -18 -32 -5 -46 -22 -41 -22 6 0 44 6 48 79 45 24 -1 47
-7 52 -15z m95 11 c10 0 14 -12 14 -40 0 -39 -1 -40 -33 -40 -39 0 -57 15 -57
47 0 24 27 45 48 38 8 -3 20 -5 28 -5z m66 -12 c-7 -7 -12 -25 -12 -40 0 -15
-4 -28 -10 -28 -5 0 -10 18 -10 39 0 30 4 41 18 43 23 6 28 0 14 -14z m82 9
c12 -9 17 -23 14 -42 -3 -27 -7 -30 -38 -30 -31 0 -35 3 -38 30 -3 26 17 55
38 55 3 0 14 -6 24 -13z m100 0 c12 -9 17 -23 14 -42 -3 -26 -8 -30 -35 -33
-25 -2 -33 -8 -33 -23 0 -10 -4 -19 -10 -19 -6 0 -10 26 -10 59 0 54 2 60 23
64 12 2 25 5 28 6 3 0 13 -5 23 -12z m1212 -12 c-9 -9 -16 -27 -16 -41 0 -13
-4 -24 -10 -24 -5 0 -10 18 -10 39 0 33 4 40 23 43 30 5 32 2 13 -17z m144
-40 c0 -39 -4 -54 -16 -59 -24 -9 -52 -7 -59 5 -11 16 3 23 19 10 8 -7 20 -10
26 -6 18 11 10 25 -15 25 -18 0 -29 8 -37 26 -11 23 -10 29 9 44 14 11 32 16
48 13 23 -5 25 -9 25 -58z m214 59 c23 -9 20 -26 -4 -19 -11 3 -20 2 -20 -4 0
-5 9 -13 20 -16 11 -3 20 -15 20 -26 0 -14 -7 -19 -30 -19 -22 0 -30 5 -30 17
0 13 3 14 12 5 14 -14 28 -16 28 -3 0 5 -9 13 -20 16 -22 7 -27 40 -7 48 6 3
13 6 14 6 1 1 8 -2 17 -5z m108 -16 c-7 -7 -12 -25 -12 -40 0 -15 -4 -28 -10
-28 -5 0 -10 18 -10 39 0 30 4 41 18 43 23 6 28 0 14 -14z m88 2 c38 -38 -14
-94 -56 -60 -19 17 -18 57 4 69 24 15 29 14 52 -9z m74 14 c23 -9 20 -26 -4
-19 -11 3 -20 2 -20 -4 0 -5 9 -13 21 -16 29 -10 20 -39 -14 -43 -20 -3 -27 1
-27 14 0 14 3 15 12 6 14 -14 28 -16 28 -3 0 5 -9 13 -20 16 -22 7 -27 40 -7
48 6 3 13 6 14 6 1 1 8 -2 17 -5z m96 -14 c38 -38 -14 -94 -56 -60 -19 17 -18
57 4 69 24 15 29 14 52 -9z m108 -19 l10 -26 11 28 c6 15 15 27 21 27 6 0 4
-14 -5 -36 -8 -20 -15 -38 -15 -40 0 -2 -6 -4 -14 -4 -7 0 -17 15 -22 33 -6
17 -16 32 -24 32 -10 0 -16 -12 -18 -32 -5 -46 -22 -41 -22 6 0 30 4 40 18 43
30 7 51 -3 60 -31z m126 23 c31 -31 13 -74 -31 -74 -55 0 -47 83 9 89 4 1 14
-6 22 -15z m-9528 -26 l7 -33 14 33 c19 47 34 40 16 -8 -19 -49 -35 -51 -51
-7 -14 40 -15 47 -3 47 5 0 13 -15 17 -32z m276 5 l11 -28 10 28 c6 15 14 27
19 27 11 0 11 -1 -13 -64 -21 -55 -45 -78 -34 -33 3 12 -1 39 -10 60 -9 22
-11 37 -5 37 6 0 16 -12 22 -27z m478 1 c0 -8 5 -14 10 -14 6 0 10 9 10 20 0
30 27 24 35 -7 l8 -28 6 24 c4 14 12 26 19 29 8 2 8 -6 -2 -34 -16 -47 -31
-53 -41 -17 l-7 28 -10 -27 c-12 -35 -26 -36 -38 -2 -13 33 -13 57 0 49 6 -3
10 -13 10 -21z m610 -1 l13 -28 9 28 c8 23 28 39 28 22 0 -17 -31 -75 -39 -75
-9 0 -41 61 -41 76 0 14 19 -1 30 -23z m280 -13 c0 -22 -4 -40 -10 -40 -5 0
-10 18 -10 40 0 22 5 40 10 40 6 0 10 -18 10 -40z m120 0 c0 -22 -4 -40 -10
-40 -5 0 -10 18 -10 40 0 22 5 40 10 40 6 0 10 -18 10 -40z m4998 29 c-11 -6
-18 -22 -18 -39 0 -17 -4 -30 -10 -30 -5 0 -10 18 -10 40 0 37 2 40 28 40 23
-1 24 -2 10 -11z m652 -18 c0 -17 5 -33 11 -37 14 -8 29 14 29 44 0 12 5 22
10 22 6 0 10 -18 10 -41 l0 -40 -37 3 c-36 3 -38 5 -41 41 -2 21 1 37 7 37 6
0 11 -13 11 -29z m230 -11 c0 -22 -4 -40 -10 -40 -5 0 -10 18 -10 40 0 22 5
40 10 40 6 0 10 -18 10 -40z m970 0 c0 -22 -4 -40 -10 -40 -5 0 -10 18 -10 40
0 22 5 40 10 40 6 0 10 -18 10 -40z m-340 -30 c0 -5 -4 -10 -10 -10 -5 0 -10
5 -10 10 0 6 5 10 10 10 6 0 10 -4 10 -10z m1400 0 c0 -5 -4 -10 -10 -10 -5 0
-10 5 -10 10 0 6 5 10 10 10 6 0 10 -4 10 -10z"/>
<path d="M11310 6090 c0 -11 7 -20 15 -20 8 0 15 -5 15 -11 0 -6 -7 -9 -15 -5
-8 3 -15 1 -15 -4 0 -14 37 -12 46 1 4 7 -4 20 -17 31 l-24 19 24 -6 c16 -5
21 -4 17 4 -12 19 -46 13 -46 -9z"/>
<path d="M11373 6075 c0 -22 2 -30 4 -17 2 12 2 30 0 40 -3 9 -5 -1 -4 -23z"/>
<path d="M11394 6096 c-17 -45 36 -78 63 -40 12 16 13 16 13 1 0 -9 5 -17 10
-17 6 0 10 8 10 18 1 16 1 16 11 0 16 -29 29 -21 29 17 0 19 -4 35 -10 35 -5
0 -10 -8 -10 -17 -1 -17 -1 -17 -11 0 -12 21 -29 22 -29 2 0 -10 -10 -15 -27
-16 -16 0 -22 -3 -15 -6 16 -6 15 -23 -2 -23 -17 0 -27 23 -16 39 5 8 16 11
30 6 15 -5 20 -4 16 4 -10 16 -56 14 -62 -3z"/>
<path d="M11560 6091 c0 -35 12 -51 36 -51 21 0 24 4 23 38 -1 35 -2 35 -8 8
-9 -41 -31 -46 -31 -7 0 17 -4 31 -10 31 -5 0 -10 -9 -10 -19z"/>
<path d="M11630 6075 c0 -19 5 -35 10 -35 6 0 10 7 10 15 0 8 7 15 15 15 8 0
15 9 15 20 0 15 -7 20 -25 20 -22 0 -25 -4 -25 -35z m40 15 c0 -5 -4 -10 -10
-10 -5 0 -10 5 -10 10 0 6 5 10 10 10 6 0 10 -4 10 -10z"/>
<path d="M2212 6059 c-30 -12 -23 -33 11 -37 23 -3 27 0 27 22 0 28 -3 29 -38
15z"/>
<path d="M2657 6106 c-3 -8 0 -17 8 -19 20 -8 56 4 52 17 -6 17 -54 19 -60 2z"/>
<path d="M2820 6063 c-37 -14 -33 -43 6 -43 19 0 24 5 24 25 0 26 -4 28 -30
18z"/>
<path d="M3950 6070 c0 -11 7 -20 15 -20 8 0 15 9 15 20 0 11 -7 20 -15 20 -8
0 -15 -9 -15 -20z"/>
<path d="M4045 6080 c-8 -14 3 -30 21 -30 8 0 14 9 14 20 0 21 -24 28 -35 10z"/>
<path d="M5015 6090 c-3 -5 1 -10 10 -10 9 0 13 5 10 10 -3 6 -8 10 -10 10 -2
0 -7 -4 -10 -10z"/>
<path d="M5140 6069 c0 -25 33 -22 38 4 2 12 -3 17 -17 17 -15 0 -21 -6 -21
-21z"/>
<path d="M5018 6053 c7 -3 16 -2 19 1 4 3 -2 6 -13 5 -11 0 -14 -3 -6 -6z"/>
<path d="M5905 6100 c-3 -5 1 -10 10 -10 9 0 13 5 10 10 -3 6 -8 10 -10 10 -2
0 -7 -4 -10 -10z"/>
<path d="M5972 6083 c2 -10 10 -18 18 -18 8 0 16 8 18 18 2 12 -3 17 -18 17
-15 0 -20 -5 -18 -17z"/>
<path d="M9503 6084 c-8 -21 13 -42 28 -27 13 13 5 43 -11 43 -6 0 -13 -7 -17
-16z"/>
<path d="M9584 6085 c-7 -17 3 -35 18 -35 7 0 6 6 -2 15 -10 12 -9 15 4 15 10
0 14 5 11 10 -9 15 -25 12 -31 -5z"/>
<path d="M1215 4965 c-28 -27 -34 -88 -11 -117 43 -57 128 -35 142 37 15 83
-74 138 -131 80z"/>
<path d="M2220 4905 l0 -85 40 0 c55 0 80 26 80 84 0 36 -5 48 -26 65 -15 12
-41 21 -60 21 l-34 0 0 -85z"/>
<path d="M2110 4520 c0 -4 9 -10 20 -13 11 -3 20 -2 20 3 0 4 -9 10 -20 13
-11 3 -20 2 -20 -3z"/>
<path d="M2176 4515 c-8 -22 1 -35 25 -35 15 0 20 6 17 22 -4 27 -33 36 -42
13z"/>
<path d="M2096 4486 c10 -8 21 -12 24 -10 5 6 -21 24 -34 24 -6 0 -1 -6 10
-14z"/>
<path d="M2708 4518 c-8 -20 2 -38 20 -37 11 0 12 2 5 6 -18 7 -16 23 3 23 8
0 12 5 9 10 -9 14 -32 12 -37 -2z"/>
<path d="M1212 4519 c2 -6 8 -10 13 -10 5 0 11 4 13 10 2 6 -4 11 -13 11 -9 0
-15 -5 -13 -11z"/>
<path d="M1522 4519 c2 -6 8 -10 13 -10 5 0 11 4 13 10 2 6 -4 11 -13 11 -9 0
-15 -5 -13 -11z"/>
<path d="M9651 4354 c-78 -21 -146 -61 -208 -123 -95 -96 -143 -207 -143 -336
0 -133 43 -241 131 -334 105 -110 221 -156 372 -149 161 8 283 76 372 207 219
321 -11 754 -400 750 -38 0 -94 -7 -124 -15z m130 -350 c63 -37 125 -77 139
-90 24 -24 24 -24 5 -44 -26 -25 -253 -160 -271 -160 -26 0 -34 40 -34 180 0
140 8 180 34 180 8 0 65 -30 127 -66z"/>
<path d="M960 4275 c0 -8 5 -15 10 -15 6 0 10 7 10 15 0 8 -4 15 -10 15 -5 0
-10 -7 -10 -15z"/>
<path d="M1048 4253 c6 -2 18 -2 25 0 6 3 1 5 -13 5 -14 0 -19 -2 -12 -5z"/>
<path d="M1048 4223 c6 -2 18 -2 25 0 6 3 1 5 -13 5 -14 0 -19 -2 -12 -5z"/>
<path d="M1555 4260 c-3 -5 1 -10 10 -10 9 0 13 5 10 10 -3 6 -8 10 -10 10 -2
0 -7 -4 -10 -10z"/>
<path d="M1240 4239 c0 -14 5 -19 17 -17 26 5 29 38 4 38 -15 0 -21 -6 -21
-21z"/>
<path d="M1640 4240 c0 -15 5 -20 18 -18 9 2 17 10 17 18 0 8 -8 16 -17 18
-13 2 -18 -3 -18 -18z"/>
<path d="M1558 4223 c7 -3 16 -2 19 1 4 3 -2 6 -13 5 -11 0 -14 -3 -6 -6z"/>
<path d="M2005 4281 c-7 -12 12 -24 25 -16 11 7 4 25 -10 25 -5 0 -11 -4 -15
-9z"/>
<path d="M2010 4226 c7 -7 13 -7 20 0 6 6 3 10 -10 10 -13 0 -16 -4 -10 -10z"/>
<path d="M2100 4275 c0 -8 7 -15 15 -15 8 0 15 7 15 15 0 8 -7 15 -15 15 -8 0
-15 -7 -15 -15z"/>
<path d="M2195 4280 c-3 -6 1 -7 9 -4 18 7 21 14 7 14 -6 0 -13 -4 -16 -10z"/>
<path d="M2192 4238 c5 -15 28 -18 29 -3 0 6 -7 12 -17 13 -10 3 -15 -1 -12
-10z"/>
<path d="M2110 4230 c-13 -8 -12 -10 3 -10 9 0 17 5 17 10 0 12 -1 12 -20 0z"/>
<path d="M2850 4240 c0 -15 5 -20 18 -18 9 2 17 10 17 18 0 8 -8 16 -17 18
-13 2 -18 -3 -18 -18z"/>
<path d="M2952 4243 c5 -26 38 -29 38 -4 0 15 -6 21 -21 21 -14 0 -19 -5 -17
-17z"/>
<path d="M3068 4253 c7 -3 16 -2 19 1 4 3 -2 6 -13 5 -11 0 -14 -3 -6 -6z"/>
<path d="M3068 4223 c7 -3 16 -2 19 1 4 3 -2 6 -13 5 -11 0 -14 -3 -6 -6z"/>
<path d="M2970 4190 c-13 -8 -12 -10 3 -10 9 0 17 5 17 10 0 12 -1 12 -20 0z"/>
<path d="M3190 4240 c0 -5 5 -10 11 -10 5 0 7 5 4 10 -3 6 -8 10 -11 10 -2 0
-4 -4 -4 -10z"/>
<path d="M3342 4243 c5 -26 38 -29 38 -4 0 15 -6 21 -21 21 -14 0 -19 -5 -17
-17z"/>
<path d="M3450 4240 c0 -11 7 -20 15 -20 8 0 15 9 15 20 0 11 -7 20 -15 20 -8
0 -15 -9 -15 -20z"/>
<path d="M3545 4250 c-8 -14 3 -30 21 -30 8 0 14 9 14 20 0 21 -24 28 -35 10z"/>
<path d="M3840 4240 c0 -11 5 -20 10 -20 6 0 10 9 10 20 0 11 -4 20 -10 20 -5
0 -10 -9 -10 -20z"/>
<path d="M3988 4253 c7 -3 16 -2 19 1 4 3 -2 6 -13 5 -11 0 -14 -3 -6 -6z"/>
<path d="M4120 4240 c0 -15 5 -20 18 -18 9 2 17 10 17 18 0 8 -8 16 -17 18
-13 2 -18 -3 -18 -18z"/>
<path d="M4220 4240 c0 -11 7 -20 15 -20 8 0 15 9 15 20 0 11 -7 20 -15 20 -8
0 -15 -9 -15 -20z"/>
<path d="M4320 4240 c0 -23 25 -27 33 -6 7 16 -1 26 -20 26 -7 0 -13 -9 -13
-20z"/>
<path d="M4655 4260 c-3 -5 1 -10 10 -10 9 0 13 5 10 10 -3 6 -8 10 -10 10 -2
0 -7 -4 -10 -10z"/>
<path d="M4658 4223 c7 -3 16 -2 19 1 4 3 -2 6 -13 5 -11 0 -14 -3 -6 -6z"/>
<path d="M4780 4240 c0 -13 7 -20 20 -20 13 0 20 7 20 20 0 13 -7 20 -20 20
-13 0 -20 -7 -20 -20z"/>
<path d="M5025 4260 c-3 -5 1 -10 10 -10 9 0 13 5 10 10 -3 6 -8 10 -10 10 -2
0 -7 -4 -10 -10z"/>
<path d="M5270 4260 c0 -5 5 -10 11 -10 5 0 7 5 4 10 -3 6 -8 10 -11 10 -2 0
-4 -4 -4 -10z"/>
<path d="M5605 4260 c-3 -5 1 -10 10 -10 9 0 13 5 10 10 -3 6 -8 10 -10 10 -2
0 -7 -4 -10 -10z"/>
<path d="M5110 4239 c0 -14 5 -19 17 -17 26 5 29 38 4 38 -15 0 -21 -6 -21
-21z"/>
<path d="M5345 4250 c-8 -14 3 -30 21 -30 8 0 14 9 14 20 0 21 -24 28 -35 10z"/>
<path d="M5028 4223 c7 -3 16 -2 19 1 4 3 -2 6 -13 5 -11 0 -14 -3 -6 -6z"/>
<path d="M5608 4223 c7 -3 16 -2 19 1 4 3 -2 6 -13 5 -11 0 -14 -3 -6 -6z"/>
<path d="M5855 4260 c-3 -5 1 -10 10 -10 9 0 13 5 10 10 -3 6 -8 10 -10 10 -2
0 -7 -4 -10 -10z"/>
<path d="M6045 4260 c-3 -5 1 -10 10 -10 9 0 13 5 10 10 -3 6 -8 10 -10 10 -2
0 -7 -4 -10 -10z"/>
<path d="M6182 4243 c5 -26 38 -29 38 -4 0 15 -6 21 -21 21 -14 0 -19 -5 -17
-17z"/>
<path d="M5858 4223 c7 -3 16 -2 19 1 4 3 -2 6 -13 5 -11 0 -14 -3 -6 -6z"/>
<path d="M6048 4223 c7 -3 16 -2 19 1 4 3 -2 6 -13 5 -11 0 -14 -3 -6 -6z"/>
<path d="M2442 4243 c5 -26 38 -29 38 -4 0 15 -6 21 -21 21 -14 0 -19 -5 -17
-17z"/>
<path d="M1190 4019 c0 -14 5 -19 17 -17 26 5 29 38 4 38 -15 0 -21 -6 -21
-21z"/>
<path d="M2580 4020 c0 -19 4 -21 27 -15 30 7 39 13 32 19 -2 2 -16 7 -32 11
-23 6 -27 4 -27 -15z"/>
<path d="M2908 4033 c7 -3 16 -2 19 1 4 3 -2 6 -13 5 -11 0 -14 -3 -6 -6z"/>
<path d="M2908 4003 c7 -3 16 -2 19 1 4 3 -2 6 -13 5 -11 0 -14 -3 -6 -6z"/>
<path d="M3118 4033 c7 -3 16 -2 19 1 4 3 -2 6 -13 5 -11 0 -14 -3 -6 -6z"/>
<path d="M3300 4020 c0 -15 5 -20 18 -18 9 2 17 10 17 18 0 8 -8 16 -17 18
-13 2 -18 -3 -18 -18z"/>
<path d="M3370 4020 c0 -5 5 -10 11 -10 5 0 7 5 4 10 -3 6 -8 10 -11 10 -2 0
-4 -4 -4 -10z"/>
<path d="M3118 4003 c7 -3 16 -2 19 1 4 3 -2 6 -13 5 -11 0 -14 -3 -6 -6z"/>
<path d="M3620 4020 c0 -5 5 -10 11 -10 5 0 7 5 4 10 -3 6 -8 10 -11 10 -2 0
-4 -4 -4 -10z"/>
<path d="M4255 4040 c-3 -5 1 -10 10 -10 9 0 13 5 10 10 -3 6 -8 10 -10 10 -2
0 -7 -4 -10 -10z"/>
<path d="M4340 4040 c0 -5 5 -10 11 -10 5 0 7 5 4 10 -3 6 -8 10 -11 10 -2 0
-4 -4 -4 -10z"/>
<path d="M4258 4003 c7 -3 16 -2 19 1 4 3 -2 6 -13 5 -11 0 -14 -3 -6 -6z"/>
<path d="M4805 4040 c-3 -5 1 -10 10 -10 9 0 13 5 10 10 -3 6 -8 10 -10 10 -2
0 -7 -4 -10 -10z"/>
<path d="M4650 4020 c0 -11 5 -20 10 -20 6 0 10 9 10 20 0 11 -4 20 -10 20 -5
0 -10 -9 -10 -20z"/>
<path d="M4808 4003 c7 -3 16 -2 19 1 4 3 -2 6 -13 5 -11 0 -14 -3 -6 -6z"/>
<path d="M5285 4070 c-3 -5 -1 -10 4 -10 6 0 11 5 11 10 0 6 -2 10 -4 10 -3 0
-8 -4 -11 -10z"/>
<path d="M5035 4030 c-8 -14 3 -30 21 -30 8 0 14 9 14 20 0 21 -24 28 -35 10z"/>
<path d="M5230 4020 c0 -11 7 -20 15 -20 8 0 15 9 15 20 0 11 -7 20 -15 20 -8
0 -15 -9 -15 -20z"/>
<path d="M5585 4030 c-8 -14 3 -30 21 -30 8 0 14 9 14 20 0 21 -24 28 -35 10z"/>
<path d="M5787 4043 c-11 -10 -8 -43 3 -43 6 0 10 11 10 25 0 26 -2 29 -13 18z"/>
<path d="M5928 4033 c7 -3 16 -2 19 1 4 3 -2 6 -13 5 -11 0 -14 -3 -6 -6z"/>
<path d="M5928 4003 c7 -3 16 -2 19 1 4 3 -2 6 -13 5 -11 0 -14 -3 -6 -6z"/>
<path d="M4460 4020 c0 -11 5 -20 10 -20 6 0 10 9 10 20 0 11 -4 20 -10 20 -5
0 -10 -9 -10 -20z"/>
<path d="M4510 4020 c0 -15 5 -20 18 -18 9 2 17 10 17 18 0 8 -8 16 -17 18
-13 2 -18 -3 -18 -18z"/>
<path d="M3778 4033 c7 -3 16 -2 19 1 4 3 -2 6 -13 5 -11 0 -14 -3 -6 -6z"/>
<path d="M3968 4033 c7 -3 16 -2 19 1 4 3 -2 6 -13 5 -11 0 -14 -3 -6 -6z"/>
<path d="M3778 4003 c7 -3 16 -2 19 1 4 3 -2 6 -13 5 -11 0 -14 -3 -6 -6z"/>
<path d="M3968 4003 c7 -3 16 -2 19 1 4 3 -2 6 -13 5 -11 0 -14 -3 -6 -6z"/>
<path d="M5458 4033 c6 -2 18 -2 25 0 6 3 1 5 -13 5 -14 0 -19 -2 -12 -5z"/>
<path d="M5458 4003 c6 -2 18 -2 25 0 6 3 1 5 -13 5 -14 0 -19 -2 -12 -5z"/>
<path d="M1227 3823 c-11 -10 -8 -43 3 -43 6 0 10 11 10 25 0 26 -2 29 -13 18z"/>
<path d="M960 3799 c0 -14 5 -19 17 -17 26 5 29 38 4 38 -15 0 -21 -6 -21 -21z"/>
<path d="M1060 3800 c0 -15 5 -20 18 -18 9 2 17 10 17 18 0 8 -8 16 -17 18
-13 2 -18 -3 -18 -18z"/>
<path d="M1318 3813 c7 -3 16 -2 19 1 4 3 -2 6 -13 5 -11 0 -14 -3 -6 -6z"/>
<path d="M1488 3813 c6 -2 18 -2 25 0 6 3 1 5 -13 5 -14 0 -19 -2 -12 -5z"/>
<path d="M1612 3803 c5 -26 38 -29 38 -4 0 15 -6 21 -21 21 -14 0 -19 -5 -17
-17z"/>
<path d="M1318 3783 c7 -3 16 -2 19 1 4 3 -2 6 -13 5 -11 0 -14 -3 -6 -6z"/>
<path d="M1488 3783 c7 -3 16 -2 19 1 4 3 -2 6 -13 5 -11 0 -14 -3 -6 -6z"/>
<path d="M1968 3813 c6 -2 18 -2 25 0 6 3 1 5 -13 5 -14 0 -19 -2 -12 -5z"/>
<path d="M1968 3783 c6 -2 18 -2 25 0 6 3 1 5 -13 5 -14 0 -19 -2 -12 -5z"/>
<path d="M2100 3800 c0 -15 5 -20 18 -18 9 2 17 10 17 18 0 8 -8 16 -17 18
-13 2 -18 -3 -18 -18z"/>
<path d="M2235 3810 c-8 -14 3 -30 21 -30 8 0 14 9 14 20 0 21 -24 28 -35 10z"/>
<path d="M2985 3811 c-3 -5 -1 -12 5 -16 5 -3 10 1 10 9 0 18 -6 21 -15 7z"/>
<path d="M3970 3800 c0 -23 25 -27 33 -6 7 16 -1 26 -20 26 -7 0 -13 -9 -13
-20z"/>
<path d="M4120 3800 c0 -11 5 -20 10 -20 6 0 10 9 10 20 0 11 -4 20 -10 20 -5
0 -10 -9 -10 -20z"/>
<path d="M4178 3813 c6 -2 18 -2 25 0 6 3 1 5 -13 5 -14 0 -19 -2 -12 -5z"/>
<path d="M4178 3783 c7 -3 16 -2 19 1 4 3 -2 6 -13 5 -11 0 -14 -3 -6 -6z"/>
<path d="M5460 3820 c0 -5 5 -10 11 -10 5 0 7 5 4 10 -3 6 -8 10 -11 10 -2 0
-4 -4 -4 -10z"/>
<path d="M4895 3810 c-8 -14 3 -30 21 -30 8 0 14 9 14 20 0 21 -24 28 -35 10z"/>
<path d="M5050 3799 c0 -14 5 -19 17 -17 26 5 29 38 4 38 -15 0 -21 -6 -21
-21z"/>
<path d="M5240 3800 c0 -13 7 -20 20 -20 13 0 20 7 20 20 0 13 -7 20 -20 20
-13 0 -20 -7 -20 -20z"/>
<path d="M5310 3800 c0 -5 5 -10 11 -10 5 0 7 5 4 10 -3 6 -8 10 -11 10 -2 0
-4 -4 -4 -10z"/>
<path d="M5375 3800 c3 -5 8 -10 11 -10 2 0 4 5 4 10 0 6 -5 10 -11 10 -5 0
-7 -4 -4 -10z"/>
<path d="M5580 3800 c0 -15 5 -20 18 -18 9 2 17 10 17 18 0 8 -8 16 -17 18
-13 2 -18 -3 -18 -18z"/>
<path d="M4495 3820 c-3 -5 1 -10 10 -10 9 0 13 5 10 10 -3 6 -8 10 -10 10 -2
0 -7 -4 -10 -10z"/>
<path d="M4640 3800 c0 -15 5 -20 18 -18 9 2 17 10 17 18 0 8 -8 16 -17 18
-13 2 -18 -3 -18 -18z"/>
<path d="M4498 3783 c7 -3 16 -2 19 1 4 3 -2 6 -13 5 -11 0 -14 -3 -6 -6z"/>
<path d="M2582 3803 c5 -26 38 -29 38 -4 0 15 -6 21 -21 21 -14 0 -19 -5 -17
-17z"/>
<path d="M3468 3813 c6 -2 18 -2 25 0 6 3 1 5 -13 5 -14 0 -19 -2 -12 -5z"/>
<path d="M3468 3783 c7 -3 16 -2 19 1 4 3 -2 6 -13 5 -11 0 -14 -3 -6 -6z"/>
<path d="M3830 3800 c0 -15 5 -20 18 -18 9 2 17 10 17 18 0 8 -8 16 -17 18
-13 2 -18 -3 -18 -18z"/>
<path d="M5890 3800 c0 -15 5 -20 18 -18 9 2 17 10 17 18 0 8 -8 16 -17 18
-13 2 -18 -3 -18 -18z"/>
<path d="M6070 3800 c0 -15 5 -20 18 -18 9 2 17 10 17 18 0 8 -8 16 -17 18
-13 2 -18 -3 -18 -18z"/>
<path d="M6328 3813 c6 -2 18 -2 25 0 6 3 1 5 -13 5 -14 0 -19 -2 -12 -5z"/>
<path d="M6415 3810 c-8 -14 3 -30 21 -30 8 0 14 9 14 20 0 21 -24 28 -35 10z"/>
<path d="M6520 3800 c0 -15 5 -20 18 -18 9 2 17 10 17 18 0 8 -8 16 -17 18
-13 2 -18 -3 -18 -18z"/>
<path d="M6328 3783 c7 -3 16 -2 19 1 4 3 -2 6 -13 5 -11 0 -14 -3 -6 -6z"/>
<path d="M1095 3590 c-8 -14 3 -30 21 -30 8 0 14 9 14 20 0 21 -24 28 -35 10z"/>
<path d="M1420 3580 c0 -19 4 -21 33 -15 34 8 43 12 36 19 -2 2 -19 7 -36 11
-29 6 -33 4 -33 -15z"/>
<path d="M1610 3580 c0 -11 7 -20 15 -20 8 0 15 9 15 20 0 11 -7 20 -15 20 -8
0 -15 -9 -15 -20z"/>
<path d="M1705 3590 c-8 -14 3 -30 21 -30 8 0 14 9 14 20 0 21 -24 28 -35 10z"/>
<path d="M1470 2985 l0 -35 23 23 22 22 3 -22 c3 -21 8 -22 56 -20 l53 2 -10
33 c-13 40 -25 41 -40 2 -14 -38 -37 -39 -37 -2 0 26 -4 29 -35 30 -34 1 -35
0 -35 -33z m30 15 c0 -5 -4 -10 -10 -10 -5 0 -10 5 -10 10 0 6 5 10 10 10 6 0
10 -4 10 -10z"/>
<path d="M1644 2985 c6 -19 13 -35 16 -35 3 0 10 16 16 35 10 33 3 50 -10 23
-5 -10 -7 -10 -12 0 -13 27 -20 10 -10 -23z"/>
<path d="M2415 3156 c-42 -18 -83 -69 -91 -112 -14 -73 10 -134 70 -178 27
-21 38 -21 566 -21 528 0 539 0 566 21 54 40 69 70 69 139 0 69 -15 99 -69
139 -27 21 -40 21 -554 23 -423 2 -533 0 -557 -11z m330 -136 c3 -5 -1 -10 -9
-10 -19 0 -22 -20 -3 -21 10 0 10 -2 0 -6 -7 -2 -13 -11 -13 -19 0 -8 -4 -14
-10 -14 -11 0 -14 63 -3 73 10 10 31 8 38 -3z m471 -2 c4 -5 0 -8 -9 -8 -19 0
-23 -20 -4 -21 10 0 10 -2 0 -6 -19 -7 -16 -23 4 -23 13 0 14 -3 6 -11 -19
-19 -43 -2 -43 31 0 16 -4 30 -10 30 -5 0 -10 -13 -10 -30 0 -16 -4 -30 -10
-30 -5 0 -10 14 -10 30 0 17 -4 30 -10 30 -5 0 -10 -13 -10 -29 0 -20 -6 -30
-20 -34 -11 -3 -22 -2 -25 3 -5 8 -53 5 -62 -4 -3 -3 -14 -1 -24 4 -11 6 -27
6 -41 1 -29 -11 -58 3 -59 27 0 13 -3 12 -11 -5 -13 -27 -34 -30 -41 -5 -2 9
-8 25 -12 35 -4 10 -3 17 4 17 7 0 15 -10 20 -22 l8 -23 7 21 c6 19 14 22 66
22 59 0 60 -1 60 -29 0 -16 5 -29 10 -29 6 0 10 13 10 29 0 23 5 30 23 33 43
6 185 3 193 -4z m-416 -24 c15 -37 13 -40 -24 -41 -33 -1 -34 0 -25 24 20 52
34 57 49 17z"/>
<path d="M2903 2994 c-8 -21 13 -42 28 -27 13 13 5 43 -11 43 -6 0 -13 -7 -17
-16z"/>
<path d="M3075 2970 c3 -5 8 -10 11 -10 2 0 4 5 4 10 0 6 -5 10 -11 10 -5 0
-7 -4 -4 -10z"/>
<path d="M11462 1198 c-7 -7 -12 -37 -12 -68 0 -31 5 -61 12 -68 7 -7 37 -12
68 -12 31 0 61 5 68 12 7 7 12 37 12 68 0 31 -5 61 -12 68 -7 7 -37 12 -68 12
-31 0 -61 -5 -68 -12z m128 -18 c0 -5 -4 -10 -10 -10 -5 0 -10 5 -10 10 0 6 5
10 10 10 6 0 10 -4 10 -10z m-28 -17 c22 -20 23 -41 1 -65 -20 -22 -41 -23
-65 -1 -22 20 -23 41 -1 65 20 22 41 23 65 1z"/>
<path d="M11504 1146 c-10 -26 4 -48 28 -44 17 2 23 10 23 28 0 18 -6 26 -23
28 -13 2 -25 -3 -28 -12z"/>
<path d="M12390 1130 l0 -40 25 16 c14 9 25 20 25 24 0 4 -11 15 -25 24 l-25
16 0 -40z"/>
<path d="M3996 1063 c-12 -12 -6 -33 9 -33 8 0 15 6 15 14 0 17 -14 28 -24 19z"/>
<path d="M4154 1056 c-4 -10 -2 -22 4 -28 8 -8 13 -7 18 6 4 10 2 22 -4 28 -8
8 -13 7 -18 -6z"/>
<path d="M4424 1056 c-4 -10 -2 -22 4 -28 8 -8 13 -7 18 6 4 10 2 22 -4 28 -8
8 -13 7 -18 -6z"/>
<path d="M2320 930 c0 -23 5 -30 19 -30 10 0 24 7 31 15 16 19 -3 45 -31 45
-14 0 -19 -7 -19 -30z"/>
<path d="M2507 863 c-14 -13 -6 -24 15 -21 27 4 36 28 11 28 -11 0 -23 -3 -26
-7z"/>
<path d="M3682 880 c-11 -28 -7 -40 14 -40 15 0 17 14 4 45 -7 19 -8 19 -18
-5z"/>
<path d="M1727 886 c-11 -28 4 -47 32 -44 20 2 26 8 26 28 0 20 -6 26 -26 28
-17 2 -29 -3 -32 -12z"/>
<path d="M1854 886 c-10 -26 4 -48 28 -44 17 2 23 10 23 28 0 18 -6 26 -23 28
-13 2 -25 -3 -28 -12z"/>
<path d="M1984 886 c-10 -26 4 -48 28 -44 17 2 23 10 23 28 0 18 -6 26 -23 28
-13 2 -25 -3 -28 -12z"/>
<path d="M2155 890 c-8 -13 15 -13 35 0 12 8 11 10 -7 10 -12 0 -25 -4 -28
-10z"/>
<path d="M3824 856 c-10 -26 1 -51 22 -54 24 -3 38 20 29 49 -7 22 -43 25 -51
5z"/>
<path d="M3977 864 c-4 -4 -7 -20 -7 -36 0 -25 4 -29 23 -26 17 2 22 10 22 33
0 29 -22 45 -38 29z"/>
<path d="M4375 851 c-6 -21 9 -61 24 -61 16 0 33 29 29 52 -4 31 -44 37 -53 9z"/>
<path d="M4613 873 c-22 -8 -14 -23 12 -23 14 0 25 4 25 9 0 11 -21 19 -37 14z"/>
<path d="M2760 455 c0 -8 9 -15 20 -15 11 0 20 7 20 15 0 8 -9 15 -20 15 -11
0 -20 -7 -20 -15z"/>
<path d="M4116 435 c-3 -9 0 -15 9 -15 9 0 12 6 9 15 -4 8 -7 15 -9 15 -2 0
-5 -7 -9 -15z"/>
<path d="M4207 443 c-11 -10 -8 -41 4 -49 16 -9 43 21 36 40 -7 16 -28 21 -40
9z"/>
<path d="M9590 431 c0 -28 4 -41 14 -41 40 0 48 73 9 78 -21 3 -23 -1 -23 -37z"/>
<path d="M10454 435 c-9 -22 22 -53 37 -38 15 15 7 47 -14 51 -9 2 -20 -4 -23
-13z"/>
<path d="M10746 464 c-30 -30 -13 -74 29 -74 42 0 59 44 29 74 -8 9 -22 16
-29 16 -7 0 -21 -7 -29 -16z m55 -10 c11 -13 9 -14 -14 -9 -23 6 -27 4 -27
-15 0 -19 4 -21 28 -15 20 5 24 4 16 -5 -31 -32 -82 12 -54 45 16 19 34 19 51
-1z"/>
<path d="M10997 473 c-4 -3 -7 -21 -7 -38 0 -17 3 -35 7 -38 11 -11 33 14 33
38 0 24 -22 49 -33 38z"/>
<path d="M11306 441 c-4 -7 -5 -15 -2 -18 9 -9 19 4 14 18 -4 11 -6 11 -12 0z"/>
<path d="M12527 443 c-11 -10 -8 -41 4 -49 16 -9 41 20 33 39 -6 17 -25 22
-37 10z"/>
<path d="M1056 434 c-9 -23 19 -53 35 -37 15 15 7 47 -12 51 -9 2 -19 -5 -23
-14z"/>
<path d="M1310 440 c0 -5 9 -10 21 -10 11 0 17 5 14 10 -3 6 -13 10 -21 10 -8
0 -14 -4 -14 -10z"/>
<path d="M1318 398 c9 -9 15 -9 24 0 9 9 7 12 -12 12 -19 0 -21 -3 -12 -12z"/>
<path d="M1685 440 c-3 -5 3 -10 14 -10 12 0 21 5 21 10 0 6 -6 10 -14 10 -8
0 -18 -4 -21 -10z"/>
<path d="M1688 398 c9 -9 15 -9 24 0 9 9 7 12 -12 12 -19 0 -21 -3 -12 -12z"/>
<path d="M2107 443 c-11 -10 -8 -41 4 -49 16 -9 43 21 36 40 -7 16 -28 21 -40
9z"/>
<path d="M2470 440 c0 -5 9 -10 21 -10 11 0 17 5 14 10 -3 6 -13 10 -21 10 -8
0 -14 -4 -14 -10z"/>
<path d="M2478 398 c9 -9 15 -9 24 0 9 9 7 12 -12 12 -19 0 -21 -3 -12 -12z"/>
<path d="M3024 435 c-9 -22 22 -53 37 -38 15 15 7 47 -14 51 -9 2 -20 -4 -23
-13z"/>
<path d="M3610 440 c0 -5 9 -10 21 -10 11 0 17 5 14 10 -3 6 -13 10 -21 10 -8
0 -14 -4 -14 -10z"/>
<path d="M3618 398 c9 -9 15 -9 24 0 9 9 7 12 -12 12 -19 0 -21 -3 -12 -12z"/>
<path d="M4390 440 c0 -5 9 -10 21 -10 11 0 17 5 14 10 -3 6 -13 10 -21 10 -8
0 -14 -4 -14 -10z"/>
<path d="M4398 398 c9 -9 15 -9 24 0 9 9 7 12 -12 12 -19 0 -21 -3 -12 -12z"/>
<path d="M4847 443 c-11 -10 -8 -41 4 -49 16 -9 41 20 33 39 -6 17 -25 22 -37
10z"/>
<path d="M9746 434 c-9 -23 19 -53 35 -37 15 15 7 47 -12 51 -9 2 -19 -5 -23
-14z"/>
<path d="M10007 443 c-11 -10 -8 -41 4 -49 16 -9 43 21 36 40 -7 16 -28 21
-40 9z"/>
<path d="M10165 440 c-3 -5 3 -10 14 -10 12 0 21 5 21 10 0 6 -6 10 -14 10 -8
0 -18 -4 -21 -10z"/>
<path d="M10168 398 c9 -9 15 -9 24 0 9 9 7 12 -12 12 -19 0 -21 -3 -12 -12z"/>
<path d="M10256 434 c-9 -23 19 -53 35 -37 15 15 7 47 -12 51 -9 2 -19 -5 -23
-14z"/>
<path d="M11594 435 c-9 -22 22 -53 37 -38 15 15 7 47 -14 51 -9 2 -20 -4 -23
-13z"/>
<path d="M12025 440 c-3 -5 3 -10 14 -10 12 0 21 5 21 10 0 6 -6 10 -14 10 -8
0 -18 -4 -21 -10z"/>
<path d="M12028 398 c9 -9 15 -9 24 0 9 9 7 12 -12 12 -19 0 -21 -3 -12 -12z"/>
<path d="M12195 440 c-3 -5 3 -10 14 -10 12 0 21 5 21 10 0 6 -6 10 -14 10 -8
0 -18 -4 -21 -10z"/>
<path d="M12198 398 c9 -9 15 -9 24 0 9 9 7 12 -12 12 -19 0 -21 -3 -12 -12z"/>
<path d="M12430 440 c0 -5 9 -10 21 -10 11 0 17 5 14 10 -3 6 -13 10 -21 10
-8 0 -14 -4 -14 -10z"/>
<path d="M12438 398 c9 -9 15 -9 24 0 9 9 7 12 -12 12 -19 0 -21 -3 -12 -12z"/>
</g>
</svg>
